<svg width="29.000000" height="25.000000" viewBox="0 0 29 25" fill="none" xmlns="http://www.w3.org/2000/svg" xmlns:xlink="http://www.w3.org/1999/xlink">
	<desc>
			Created with Pixso.
	</desc>
	<defs/>
	<path id="Union" d="M15.9795 0.324585C14.7432 -0.108154 13.3965 -0.108154 12.1592 0.324585L1.63965 4.00671C-0.546875 4.77173 -0.546875 7.86267 1.63965 8.62769L4.95508 9.78821L4.95508 17.4037C4.95508 18.4626 5.45703 19.4591 6.30762 20.0894C11.4131 23.8716 18.3916 23.8716 23.498 20.0894C24.3486 19.4591 24.8506 18.4628 24.8506 17.4037L24.8506 9.20471L25.9023 8.89771C26.2744 9.01147 26.6221 9.38354 26.6221 9.77283L26.6221 18.5791C26.6221 19.0106 26.9717 19.3604 27.4033 19.3604C27.834 19.3604 28.1846 19.0106 28.1846 18.5791L28.1846 9.77283C28.1846 9.10107 27.9102 8.47864 27.4541 8.02917C28.6172 6.84192 28.2988 4.63635 26.5 4.00671L15.9795 0.324585ZM2.15527 5.48145C1.36523 5.75818 1.36523 6.87622 2.15527 7.15283L12.6758 10.8351C13.5781 11.1508 14.5605 11.1508 15.4629 10.8351L23.2842 8.09778L17.1748 6.23096C16.7617 6.10486 16.5293 5.66821 16.6553 5.25549C16.7822 4.8429 17.2188 4.6106 17.6309 4.73669L25.9062 7.229C26.6973 6.95227 26.7744 5.75818 25.9834 5.48145L15.4629 1.79932C14.5605 1.48352 13.5781 1.48352 12.6758 1.79932L2.15527 5.48145ZM6.51758 17.4037L6.51758 10.3351L12.1592 12.3099C13.3965 12.7426 14.7432 12.7424 15.9795 12.3098L23.2881 9.75171L23.2881 17.4037C23.2881 17.9675 23.0205 18.4982 22.5674 18.8339C18.0146 22.2068 11.791 22.2067 7.2373 18.8339C6.78418 18.4982 6.51758 17.9677 6.51758 17.4037ZM28.1846 21.6346C28.1846 21.2031 27.834 20.8534 27.4033 20.8534C26.9717 20.8534 26.6221 21.2031 26.6221 21.6346L26.6221 23.8171C26.6221 24.2487 26.9717 24.5984 27.4033 24.5984C27.834 24.5984 28.1846 24.2487 28.1846 23.8171L28.1846 21.6346Z" clip-rule="evenodd" fill="#000000" fill-opacity="1.000000" fill-rule="evenodd"/>
</svg>
