<svg width="40.000000" height="40.000000" viewBox="0 0 40 40" fill="none" xmlns="http://www.w3.org/2000/svg" xmlns:xlink="http://www.w3.org/1999/xlink">
	<desc>
			Created with Pixso.
	</desc>
	<defs>
		<clipPath id="clip784_1772">
			<rect id="icn_l_best_practices" width="40.000000" height="40.000000" fill="white" fill-opacity="0"/>
		</clipPath>
	</defs>
	<rect id="icn_l_best_practices" width="40.000000" height="40.000000" fill="#FFFFFF" fill-opacity="0"/>
	<g clip-path="url(#clip784_1772)">
		<path id="Union" d="M21.9102 8.17407C20.6738 7.74146 19.3271 7.74146 18.0898 8.17407L7.57031 11.8562C5.38379 12.6213 5.38379 15.7124 7.57031 16.4773L10.8857 17.6377L10.8857 25.2532C10.8857 26.3123 11.3877 27.3086 12.2383 27.939C17.3438 31.7212 24.3223 31.7212 29.4287 27.939C30.2793 27.3086 30.7812 26.3123 30.7812 25.2532L30.7812 17.0544L31.833 16.7473C32.2051 16.8611 32.5527 17.2332 32.5527 17.6223L32.5527 26.4287C32.5527 26.8601 32.9023 27.21 33.334 27.21C33.7646 27.21 34.1152 26.8601 34.1152 26.4287L34.1152 17.6223C34.1152 16.9507 33.8408 16.3284 33.3848 15.8787C34.5479 14.6917 34.2295 12.4858 32.4307 11.8562L21.9102 8.17407ZM8.08594 13.3311C7.2959 13.6077 7.2959 14.7258 8.08594 15.0024L18.6064 18.6846C19.5088 19.0005 20.4912 19.0005 21.3936 18.6846L29.2148 15.9473L23.1055 14.0806C22.6924 13.9546 22.46 13.5178 22.5859 13.1052C22.7129 12.6926 23.1494 12.4602 23.5615 12.5862L31.8369 15.0786C32.6279 14.802 32.7051 13.6077 31.9141 13.3311L21.3936 9.64893C20.4912 9.33325 19.5088 9.33325 18.6064 9.64893L8.08594 13.3311ZM12.4482 25.2532L12.4482 18.1846L18.0898 20.1594C19.3271 20.592 20.6738 20.592 21.9102 20.1594L29.2188 17.6013L29.2188 25.2532C29.2188 25.8171 28.9512 26.3479 28.498 26.6836C23.9453 30.0564 17.7217 30.0564 13.168 26.6833C12.7148 26.3479 12.4482 25.8171 12.4482 25.2532ZM34.1152 29.4841C34.1152 29.0527 33.7646 28.7029 33.334 28.7029C32.9023 28.7029 32.5527 29.0527 32.5527 29.4841L32.5527 31.6667C32.5527 32.0981 32.9023 32.448 33.334 32.448C33.7646 32.448 34.1152 32.0981 34.1152 31.6667L34.1152 29.4841Z" clip-rule="evenodd" fill="#0E0825" fill-opacity="1.000000" fill-rule="evenodd"/>
	</g>
</svg>
