<svg width="40.000000" height="40.000000" viewBox="0 0 40 40" fill="none" xmlns="http://www.w3.org/2000/svg" xmlns:xlink="http://www.w3.org/1999/xlink">
	<desc>
			Created with Pixso.
	</desc>
	<defs>
		<clipPath id="clip784_1754">
			<rect id="icn_l_charts" width="40.000000" height="40.000000" fill="white" fill-opacity="0"/>
		</clipPath>
	</defs>
	<rect id="icn_l_charts" width="40.000000" height="40.000000" fill="#FFFFFF" fill-opacity="0"/>
	<g clip-path="url(#clip784_1754)">
		<path id="Union" d="M15.625 32.7083L24.375 32.7083L24.375 8.33325Q24.375 7.81226 24.1143 7.552Q23.8545 7.2915 23.333 7.2915L16.667 7.2915Q16.1455 7.2915 15.8857 7.552Q15.625 7.81226 15.625 8.33325L15.625 32.7083ZM25.625 32.7083L33.333 32.7083Q33.5488 32.7083 33.7334 32.6318Q33.917 32.5557 34.0703 32.4031Q34.2227 32.2505 34.2988 32.0664Q34.375 31.8823 34.375 31.6665L34.375 14.1665Q34.375 13.9507 34.2988 13.7666Q34.2227 13.5825 34.0703 13.4299Q33.917 13.2773 33.7334 13.2012Q33.5488 13.1248 33.333 13.1248L25.625 13.1248L25.625 32.7083ZM25.625 11.8748L33.333 11.8748Q33.8076 11.8748 34.2129 12.0427Q34.6182 12.2104 34.9541 12.5461Q35.2891 12.8816 35.457 13.2869Q35.625 13.6919 35.625 14.1665L35.625 31.6665Q35.625 32.1411 35.457 32.5464Q35.2891 32.9514 34.9541 33.2869Q34.6182 33.6226 34.2129 33.7903Q33.8076 33.9583 33.333 33.9583L6.66699 33.9583Q5.52051 33.9583 4.94824 33.3853Q4.375 32.8123 4.375 31.6665L4.375 19.1665Q4.375 18.6914 4.54297 18.2859Q4.71094 17.8813 5.0459 17.5461Q5.38086 17.2107 5.78613 17.0427Q6.19141 16.8748 6.66602 16.8748L14.375 16.8748L14.375 8.33325Q14.375 7.18726 14.9482 6.6145Q15.5205 6.0415 16.667 6.0415L23.333 6.0415Q24.4795 6.0415 25.0518 6.6145Q25.625 7.18726 25.625 8.33325L25.625 11.8748ZM14.375 18.1248L6.66602 18.1248Q6.14551 18.1248 5.88574 18.385Q5.625 18.6455 5.625 19.1665L5.625 31.6665Q5.625 32.1873 5.88574 32.4478Q6.14551 32.7083 6.66699 32.7083L14.375 32.7083L14.375 18.1248Z" clip-rule="evenodd" fill="#0E0825" fill-opacity="1.000000" fill-rule="evenodd"/>
	</g>
</svg>
