<svg width="40.000000" height="40.000000" viewBox="0 0 40 40" fill="none" xmlns="http://www.w3.org/2000/svg" xmlns:xlink="http://www.w3.org/1999/xlink">
	<desc>
			Created with Pixso.
	</desc>
	<defs/>
	<path id="Union" d="M26.1211 8C23.4805 8 21.3398 10.1414 21.3398 12.7828C21.3398 15.4243 23.4805 17.5657 26.1211 17.5657C28.7637 17.5657 30.9043 15.4243 30.9043 12.7828C30.9043 10.1414 28.7637 8 26.1211 8ZM23.252 12.7828C23.252 11.198 24.5371 9.91309 26.1211 9.91309C27.707 9.91309 28.9922 11.198 28.9922 12.7828C28.9922 14.3677 27.707 15.6525 26.1211 15.6525C24.5371 15.6525 23.252 14.3677 23.252 12.7828ZM13.8789 11.8263C11.2363 11.8263 9.0957 13.9677 9.0957 16.6091C9.0957 19.2505 11.2363 21.392 13.8789 21.392C16.5195 21.392 18.6602 19.2505 18.6602 16.6091C18.6602 13.9677 16.5195 11.8263 13.8789 11.8263ZM11.0078 16.6091C11.0078 15.0242 12.293 13.7394 13.8789 13.7394C15.4629 13.7394 16.748 15.0242 16.748 16.6091C16.748 18.194 15.4629 19.4788 13.8789 19.4788C12.293 19.4788 11.0078 18.194 11.0078 16.6091ZM26.1211 20.244C24.3164 20.244 22.6113 20.6097 21.1562 21.3136C20.6816 21.5438 20.4824 22.116 20.7129 22.5914C20.9434 23.0669 21.5156 23.2657 21.9902 23.0355C23.1543 22.4725 24.5684 22.1572 26.1211 22.1572C29.3086 22.1572 31.875 23.5394 32.9746 25.5956C33.1621 25.9485 33.1055 26.2616 32.8555 26.5513C32.5781 26.8751 32.0645 27.1313 31.4785 27.1313L26.1211 27.1313C25.5938 27.1313 25.166 27.5596 25.166 28.0879C25.166 28.6162 25.5938 29.0444 26.1211 29.0444L31.4785 29.0444C32.582 29.0444 33.6387 28.5746 34.3066 27.7996C35.002 26.9905 35.2695 25.8319 34.6621 24.6938L34.6621 24.6938C33.1406 21.8472 29.8008 20.244 26.1211 20.244ZM13.8789 24.0703C10.1992 24.0703 6.85938 25.6735 5.33789 28.5201L5.33789 28.5201C4.73047 29.6582 4.99805 30.8168 5.69336 31.6257C6.36133 32.4008 7.41797 32.8707 8.52148 32.8707L19.2344 32.8707C20.3379 32.8707 21.3945 32.4008 22.0625 31.6257C22.7578 30.8168 23.0254 29.6582 22.418 28.5201L22.418 28.5201C20.8965 25.6735 17.5566 24.0703 13.8789 24.0703ZM7.02539 29.4219C8.125 27.3657 10.6914 25.9834 13.8789 25.9834C17.0645 25.9834 19.6309 27.3657 20.7305 29.4218C20.918 29.7748 20.8613 30.0878 20.6113 30.3776C20.334 30.7014 19.8203 30.9575 19.2344 30.9575L8.52148 30.9575C7.93555 30.9575 7.42188 30.7014 7.14453 30.3776C6.89453 30.0878 6.83789 29.7748 7.02539 29.4219Z" clip-rule="evenodd" fill="#0E0825" fill-opacity="1.000000" fill-rule="evenodd"/>
</svg>
