<svg width="26.000000" height="21.000000" viewBox="0 0 26 21" fill="none" xmlns="http://www.w3.org/2000/svg" xmlns:xlink="http://www.w3.org/1999/xlink">
	<desc>
			Created with Pixso.
	</desc>
	<defs/>
	<path id="Union" d="M13 0C9.57227 0 6.4375 0.4375 4.13281 1.16553C2.98633 1.52783 1.99805 1.97632 1.28125 2.51196C0.578125 3.03687 0 3.7522 0 4.6543L0 16.21C0 17.1121 0.578125 17.8274 1.28125 18.3523C1.99805 18.8879 2.98633 19.3364 4.13281 19.6987C6.4375 20.4268 9.57227 20.8643 13 20.8643C16.4277 20.8643 19.5625 20.4268 21.8672 19.6987C23.0137 19.3364 24.002 18.8879 24.7188 18.3523C25.4219 17.8274 26 17.1121 26 16.21L26 4.6543C26 3.7522 25.4219 3.03687 24.7188 2.51196C24.002 1.97632 23.0137 1.52783 21.8672 1.16553C19.5625 0.4375 16.4277 0 13 0ZM23.7598 5.5105C24.291 5.11377 24.3945 4.81567 24.3945 4.6543C24.3945 4.49292 24.291 4.19482 23.7598 3.7981C23.2422 3.41211 22.4434 3.03052 21.3828 2.6958C19.2734 2.02954 16.3086 1.60498 13 1.60498C9.69141 1.60498 6.72656 2.02954 4.61719 2.6958C3.55664 3.03052 2.75781 3.41211 2.24023 3.7981C1.70898 4.19482 1.60547 4.49292 1.60547 4.6543C1.60547 4.81567 1.70898 5.11377 2.24023 5.5105C2.75781 5.89648 3.55664 6.27808 4.61719 6.61279C6.72656 7.27905 9.69141 7.70361 13 7.70361C16.3086 7.70361 19.2734 7.27905 21.3828 6.61279C22.4434 6.27808 23.2422 5.89648 23.7598 5.5105ZM1.60547 8.5061L1.60547 7.021C2.2832 7.45874 3.15039 7.83252 4.13281 8.14331C6.4375 8.87109 9.57227 9.30859 13 9.30859C16.4277 9.30859 19.5625 8.87109 21.8672 8.14331C22.8496 7.83252 23.7168 7.45874 24.3945 7.021L24.3945 8.5061C24.3945 8.66772 24.291 8.96582 23.7598 9.36255C23.2422 9.74854 22.4434 10.1301 21.3828 10.4646C19.2734 11.1309 16.3086 11.5557 13 11.5557C9.69141 11.5557 6.72656 11.1309 4.61719 10.4646C3.55664 10.1301 2.75781 9.74854 2.24023 9.36255C1.70898 8.96582 1.60547 8.66772 1.60547 8.5061ZM21.8672 11.9951C22.8496 11.6846 23.7168 11.3108 24.3945 10.873L24.3945 12.3579C24.3945 12.5195 24.291 12.8176 23.7598 13.2144C23.2422 13.6003 22.4434 13.9819 21.3828 14.3164C19.2734 14.9827 16.3086 15.4075 13 15.4075C9.69141 15.4075 6.72656 14.9827 4.61719 14.3164C3.55664 13.9819 2.75781 13.6003 2.24023 13.2144C1.70898 12.8176 1.60547 12.5195 1.60547 12.3579L1.60547 10.873C2.2832 11.3108 3.15039 11.6846 4.13281 11.9951C6.4375 12.7229 9.57227 13.1604 13 13.1604C16.4277 13.1604 19.5625 12.7229 21.8672 11.9951ZM21.8672 15.8469C22.8496 15.5364 23.7168 15.1626 24.3945 14.7249L24.3945 16.21C24.3945 16.3713 24.291 16.6694 23.7598 17.0662C23.2422 17.4521 22.4434 17.8337 21.3828 18.1685C19.2734 18.8345 16.3086 19.2593 13 19.2593C9.69141 19.2593 6.72656 18.8345 4.61719 18.1685C3.55664 17.8337 2.75781 17.4521 2.24023 17.0662C1.70898 16.6694 1.60547 16.3713 1.60547 16.21L1.60547 14.7249C2.2832 15.1626 3.15039 15.5364 4.13281 15.8469C6.4375 16.5747 9.57227 17.0125 13 17.0125C16.4277 17.0125 19.5625 16.5747 21.8672 15.8469Z" clip-rule="evenodd" fill="#6F5F79" fill-opacity="1.000000" fill-rule="evenodd"/>
</svg>
