<svg width="40.000000" height="40.000000" viewBox="0 0 40 40" fill="none" xmlns="http://www.w3.org/2000/svg" xmlns:xlink="http://www.w3.org/1999/xlink">
	<desc>
			Created with Pixso.
	</desc>
	<defs/>
	<path id="Union" d="M20 10C16.5732 10 13.4385 10.4375 11.1338 11.1654C9.98535 11.5278 8.99805 11.9763 8.28125 12.512C7.57812 13.0369 7 13.7521 7 14.6543L7 26.2098C7 27.1121 7.57812 27.8274 8.28125 28.3523C8.99805 28.8879 9.98535 29.3363 11.1338 29.6987C13.4385 30.4266 16.5732 30.8643 20 30.8643C23.4268 30.8643 26.5615 30.4266 28.8662 29.6987C30.0146 29.3363 31.002 28.8879 31.7188 28.3523C32.4219 27.8274 33 27.1121 33 26.2098L33 14.6543C33 13.7521 32.4219 13.0369 31.7188 12.512C31.002 11.9763 30.0146 11.5278 28.8662 11.1654C26.5615 10.4375 23.4268 10 20 10ZM30.7588 15.5106C31.29 15.1138 31.3955 14.8158 31.3955 14.6543C31.3955 14.4929 31.29 14.1948 30.7588 13.798C30.2422 13.4121 29.4424 13.0305 28.3838 12.6959C26.2734 12.0297 23.3096 11.605 20 11.605C16.6904 11.605 13.7266 12.0297 11.6162 12.6959C10.5576 13.0305 9.75781 13.4121 9.24121 13.798C8.70996 14.1948 8.60449 14.4929 8.60449 14.6543C8.60449 14.8158 8.70996 15.1138 9.24121 15.5106C9.75781 15.8966 10.5576 16.2782 11.6162 16.6128C13.7266 17.2789 16.6904 17.7037 20 17.7037C23.3096 17.7037 26.2734 17.2789 28.3838 16.6128C29.4424 16.2782 30.2422 15.8966 30.7588 15.5106ZM8.60449 18.5062L8.60449 17.0211C9.28418 17.4589 10.1494 17.8326 11.1338 18.1432C13.4385 18.8711 16.5732 19.3086 20 19.3086C23.4268 19.3086 26.5615 18.8711 28.8662 18.1432C29.8506 17.8325 30.7158 17.4589 31.3955 17.0211L31.3955 18.5062C31.3955 18.6676 31.29 18.9657 30.7588 19.3625C30.2422 19.7484 29.4424 20.13 28.3838 20.4646C26.2734 21.1309 23.3096 21.5555 20 21.5555C16.6904 21.5555 13.7266 21.1309 11.6162 20.4646C10.5576 20.13 9.75781 19.7484 9.24121 19.3625C8.70996 18.9657 8.60449 18.6676 8.60449 18.5062ZM28.8662 21.9951C29.8506 21.6844 30.7158 21.3107 31.3955 20.8729L31.3955 22.358C31.3955 22.5195 31.29 22.8175 30.7588 23.2144C30.2422 23.6003 29.4424 23.9819 28.3838 24.3165C26.2734 24.9827 23.3096 25.4073 20 25.4073C16.6904 25.4073 13.7266 24.9827 11.6162 24.3165C10.5576 23.9819 9.75781 23.6003 9.24121 23.2144C8.70996 22.8175 8.60449 22.5195 8.60449 22.358L8.60449 20.8729C9.28418 21.3107 10.1494 21.6844 11.1338 21.9951C13.4385 22.7229 16.5732 23.1605 20 23.1605C23.4268 23.1605 26.5615 22.7229 28.8662 21.9951ZM28.8662 25.8469C29.8506 25.5363 30.7158 25.1626 31.3955 24.7249L31.3955 26.2098C31.3955 26.3713 31.29 26.6694 30.7588 27.0662C30.2422 27.4521 29.4424 27.8337 28.3838 28.1683C26.2734 28.8346 23.3096 29.2593 20 29.2593C16.6904 29.2593 13.7266 28.8346 11.6162 28.1683C10.5576 27.8337 9.75781 27.4521 9.24121 27.0662C8.70996 26.6694 8.60449 26.3713 8.60449 26.2098L8.60449 24.7249C9.28418 25.1626 10.1494 25.5363 11.1338 25.8469C13.4385 26.5748 16.5732 27.0123 20 27.0123C23.4268 27.0123 26.5615 26.5748 28.8662 25.8469Z" clip-rule="evenodd" fill="#0E0825" fill-opacity="1.000000" fill-rule="evenodd"/>
</svg>
