<svg width="31.000000" height="31.000000" viewBox="0 0 31 31" fill="none" xmlns="http://www.w3.org/2000/svg" xmlns:xlink="http://www.w3.org/1999/xlink">
	<desc>
			Created with Pixso.
	</desc>
	<defs/>
	<path id="Union" d="M30.7812 1.66675C30.7812 0.314697 29.6855 -0.78125 28.334 -0.78125L1.66602 -0.78125C0.314453 -0.78125 -0.78125 0.314697 -0.78125 1.66675L-0.78125 20C-0.78125 21.3521 0.314453 22.448 1.66602 22.448L11.7207 22.448C11.7188 22.4651 11.7188 22.4824 11.7188 22.5L11.7188 29.2188L9.16602 29.2188C8.73438 29.2188 8.38477 29.5686 8.38477 30C8.38477 30.4314 8.73438 30.7812 9.16602 30.7812L20.834 30.7812C21.2656 30.7812 21.6152 30.4314 21.6152 30C21.6152 29.5686 21.2656 29.2188 20.834 29.2188L18.2812 29.2188L18.2812 22.5C18.2812 22.4824 18.2812 22.4651 18.2793 22.448L28.334 22.448C29.6855 22.448 30.7812 21.3521 30.7812 20L30.7812 1.66675ZM1.66602 0.78125C1.17773 0.78125 0.78125 1.17773 0.78125 1.66675L0.78125 20C0.78125 20.489 1.17773 20.8855 1.66602 20.8855L28.334 20.8855C28.8223 20.8855 29.2188 20.489 29.2188 20L29.2188 1.66675C29.2188 1.17773 28.8223 0.78125 28.334 0.78125L23.2812 0.78125L23.2812 2.5C23.2812 2.9314 22.9316 3.28125 22.5 3.28125C22.0684 3.28125 21.7188 2.9314 21.7188 2.5L21.7188 0.78125L15.7812 0.78125L15.7812 2.5C15.7812 2.9314 15.4316 3.28125 15 3.28125C14.5684 3.28125 14.2188 2.9314 14.2188 2.5L14.2188 0.78125L8.28125 0.78125L8.28125 2.5C8.28125 2.9314 7.93164 3.28125 7.5 3.28125C7.06836 3.28125 6.71875 2.9314 6.71875 2.5L6.71875 0.78125L1.66602 0.78125ZM16.7188 29.2188L16.7188 22.5C16.7188 22.4824 16.7188 22.4651 16.7207 22.448L13.2793 22.448C13.2812 22.4651 13.2812 22.4824 13.2812 22.5L13.2812 29.2188L16.7188 29.2188Z" clip-rule="evenodd" fill="#0E0825" fill-opacity="1.000000" fill-rule="evenodd"/>
</svg>
