<svg width="40.000000" height="40.000000" viewBox="0 0 40 40" fill="none" xmlns="http://www.w3.org/2000/svg" xmlns:xlink="http://www.w3.org/1999/xlink">
	<desc>
			Created with Pixso.
	</desc>
	<defs>
		<clipPath id="clip784_1727">
			<rect id="icn_l_dashboards" width="40.000000" height="40.000000" fill="white" fill-opacity="0"/>
		</clipPath>
	</defs>
	<rect id="icn_l_dashboards" width="40.000000" height="40.000000" fill="#FFFFFF" fill-opacity="0"/>
	<g clip-path="url(#clip784_1727)">
		<path id="Union" d="M35.7812 6.66663C35.7812 5.3147 34.6855 4.21875 33.333 4.21875L6.66699 4.21875C5.31445 4.21875 4.21875 5.3147 4.21875 6.66663L4.21875 25C4.21875 26.3519 5.31445 27.4479 6.66699 27.4479L16.7207 27.4479C16.7197 27.4651 16.7188 27.4825 16.7188 27.5L16.7188 34.2188L14.167 34.2188C13.7354 34.2188 13.3857 34.5685 13.3857 35C13.3857 35.4315 13.7354 35.7812 14.167 35.7812L25.833 35.7812C26.2646 35.7812 26.6143 35.4315 26.6143 35C26.6143 34.5685 26.2646 34.2188 25.833 34.2188L23.2812 34.2188L23.2812 27.5C23.2812 27.4825 23.2803 27.4651 23.2793 27.4479L33.333 27.4479C34.6855 27.4479 35.7812 26.3519 35.7812 25L35.7812 6.66663ZM6.66699 5.78125C6.17773 5.78125 5.78125 6.17761 5.78125 6.66663L5.78125 25C5.78125 25.489 6.17773 25.8854 6.66699 25.8854L33.333 25.8854C33.8223 25.8854 34.2188 25.489 34.2188 25L34.2188 6.66663C34.2188 6.17761 33.8223 5.78125 33.333 5.78125L28.2812 5.78125L28.2812 7.5C28.2812 7.93152 27.9316 8.28125 27.5 8.28125C27.0684 8.28125 26.7188 7.93152 26.7188 7.5L26.7188 5.78125L20.7812 5.78125L20.7812 7.5C20.7812 7.93152 20.4316 8.28125 20 8.28125C19.5684 8.28125 19.2188 7.93152 19.2188 7.5L19.2188 5.78125L13.2812 5.78125L13.2812 7.5C13.2812 7.93152 12.9316 8.28125 12.5 8.28125C12.0684 8.28125 11.7188 7.93152 11.7188 7.5L11.7188 5.78125L6.66699 5.78125ZM21.7188 34.2188L21.7188 27.5C21.7188 27.4825 21.7197 27.4651 21.7207 27.4479L18.2793 27.4479C18.2803 27.4651 18.2812 27.4825 18.2812 27.5L18.2812 34.2188L21.7188 34.2188Z" clip-rule="evenodd" fill="#0E0825" fill-opacity="1.000000" fill-rule="evenodd"/>
	</g>
</svg>
