<svg width="22.000000" height="29.000000" viewBox="0 0 22 29" fill="none" xmlns="http://www.w3.org/2000/svg" xmlns:xlink="http://www.w3.org/1999/xlink">
	<desc>
			Created with Pixso.
	</desc>
	<defs/>
	<path id="Union" d="M3.16992 0C1.41992 0 0 1.41895 0 3.16943L0 25.5425C0 27.2927 1.41992 28.7119 3.16992 28.7119L18.8301 28.7119C20.5801 28.7119 22 27.2927 22 25.5425L22 3.16943C22 1.41895 20.5801 0 18.8301 0L3.16992 0ZM3.72852 11L3.72852 1.8645L3.16992 1.8645C2.44922 1.8645 1.86523 2.44873 1.86523 3.16943L1.86523 25.5425C1.86523 26.2632 2.44922 26.8474 3.16992 26.8474L18.8301 26.8474C19.5508 26.8474 20.1348 26.2632 20.1348 25.5425L20.1348 3.16943C20.1348 2.44873 19.5508 1.8645 18.8301 1.8645L12.3047 1.8645L12.3047 11C12.3047 12.2544 10.709 12.7861 9.95508 11.783L9.06055 10.5898C8.53906 9.8938 7.49414 9.8938 6.97266 10.5898L6.07812 11.783C5.32617 12.7864 3.72852 12.2542 3.72852 11ZM5.59375 1.8645L10.4414 1.8645L10.4414 9.33032C9.17969 7.82788 6.85547 7.82788 5.59375 9.33032L5.59375 1.8645ZM4.66016 18.644C4.14648 18.644 3.72852 19.0615 3.72852 19.5762C3.72852 20.0911 4.14648 20.5085 4.66016 20.5085L10.627 20.5085C11.1426 20.5085 11.5586 20.0911 11.5586 19.5762C11.5586 19.0615 11.1426 18.644 10.627 18.644L4.66016 18.644ZM4.66016 21.6272C4.14648 21.6272 3.72852 22.0444 3.72852 22.5593C3.72852 23.0742 4.14648 23.4915 4.66016 23.4915L15.1016 23.4915C15.6172 23.4915 16.0332 23.0742 16.0332 22.5593C16.0332 22.0444 15.6172 21.6272 15.1016 21.6272L4.66016 21.6272Z" clip-rule="evenodd" fill="#0E0825" fill-opacity="1.000000" fill-rule="evenodd"/>
</svg>
