<svg width="7.000000" height="14.000000" viewBox="0 0 7 14" fill="none" xmlns="http://www.w3.org/2000/svg" xmlns:xlink="http://www.w3.org/1999/xlink">
	<desc>
			Created with Pixso.
	</desc>
	<defs/>
	<path id="Vector" d="M6.21 0.13C6.3 0.04 6.41 0 6.53 0C6.66 0 6.77 0.04 6.86 0.13C7.04 0.31 7.04 0.6 6.86 0.78L1.11 6.53L6.86 12.28C7.04 12.46 7.04 12.76 6.86 12.94C6.68 13.12 6.39 13.12 6.21 12.94L0.13 6.86C-0.05 6.68 -0.05 6.39 0.13 6.21L6.21 0.13Z" fill="#000000" fill-opacity="1.000000" fill-rule="nonzero"/>
	<path id="Vector" d="M6.21 0.13C6.3 0.04 6.41 0 6.53 0C6.66 0 6.77 0.04 6.86 0.13C7.04 0.31 7.04 0.6 6.86 0.78L1.11 6.53L6.86 12.28C7.04 12.46 7.04 12.76 6.86 12.94C6.68 13.12 6.39 13.12 6.21 12.94L0.13 6.86C-0.05 6.68 -0.05 6.39 0.13 6.21L6.21 0.13Z" fill="#000000" fill-opacity="1.000000" fill-rule="nonzero"/>
</svg>
