<svg width="24.000000" height="24.000000" viewBox="0 0 24 24" fill="none" xmlns="http://www.w3.org/2000/svg" xmlns:xlink="http://www.w3.org/1999/xlink">
	<desc>
			Created with Pixso.
	</desc>
	<defs>
		<clipPath id="clip53_4458">
			<rect id="icn_m_right" width="24.000000" height="24.000000" fill="white" fill-opacity="0"/>
		</clipPath>
	</defs>
	<rect id="icn_m_right" width="24.000000" height="24.000000" fill="#FFFFFF" fill-opacity="0"/>
	<g clip-path="url(#clip53_4458)">
		<path id="Union" d="M15.668 11.9998C15.668 12.2651 15.5625 12.5193 15.375 12.7068L9.71875 18.3638C9.5293 18.5459 9.27734 18.6467 9.01562 18.6445C8.75195 18.6423 8.50195 18.5371 8.31641 18.3516C8.13086 18.1663 8.02539 17.9155 8.02344 17.6533C8.02148 17.3911 8.12109 17.1384 8.30469 16.95L13.2539 11.9998L8.30469 7.0498C8.20898 6.95752 8.13281 6.84717 8.08008 6.72534C8.02734 6.60327 8 6.47192 7.99805 6.33936C7.99805 6.20654 8.02344 6.07471 8.07422 5.9519C8.12305 5.8291 8.19727 5.71729 8.29102 5.62354C8.38477 5.52954 8.49805 5.45532 8.62109 5.40503C8.74219 5.35474 8.875 5.32935 9.00781 5.33057C9.14062 5.33179 9.27148 5.35938 9.39453 5.41187C9.51562 5.46411 9.625 5.54028 9.71875 5.63574L15.375 11.293C15.5625 11.4805 15.668 11.7346 15.668 11.9998Z" clip-rule="evenodd" fill="#000000" fill-opacity="1.000000" fill-rule="evenodd"/>
	</g>
</svg>
