<svg width="24.000000" height="24.000000" viewBox="0 0 24 24" fill="none" xmlns="http://www.w3.org/2000/svg" xmlns:xlink="http://www.w3.org/1999/xlink">
	<desc>
			Created with Pixso.
	</desc>
	<defs>
		<clipPath id="clip784_1949">
			<rect id="btn_m_menu dots" width="24.000000" height="24.000000" fill="white" fill-opacity="0"/>
		</clipPath>
	</defs>
	<g clip-path="url(#clip784_1949)">
		<path id="Union" d="M13.4141 3.58569C13.0391 3.21069 12.5303 3 12 3C11.4697 3 10.9609 3.21069 10.5859 3.58569C10.2109 3.96094 10 4.46948 10 5C10 5.53052 10.2109 6.03906 10.5859 6.41431C10.9609 6.78931 11.4697 7 12 7C12.5303 7 13.0391 6.78931 13.4141 6.41431C13.7891 6.03906 14 5.53052 14 5C14 4.46948 13.7891 3.96094 13.4141 3.58569ZM13.4141 10.5857C13.0391 10.2107 12.5303 10 12 10C11.4697 10 10.9609 10.2107 10.5859 10.5857C10.2109 10.9609 10 11.4695 10 12C10 12.5305 10.2109 13.0391 10.5859 13.4143C10.9609 13.7893 11.4697 14 12 14C12.5303 14 13.0391 13.7893 13.4141 13.4143C13.7891 13.0391 14 12.5305 14 12C14 11.4695 13.7891 10.9609 13.4141 10.5857ZM13.4141 17.5857C13.0391 17.2107 12.5303 17 12 17C11.4697 17 10.9609 17.2107 10.5859 17.5857C10.2109 17.9609 10 18.4695 10 19C10 19.5305 10.2109 20.0391 10.5859 20.4143C10.9609 20.7893 11.4697 21 12 21C12.5303 21 13.0391 20.7893 13.4141 20.4143C13.7891 20.0391 14 19.5305 14 19C14 18.4695 13.7891 17.9609 13.4141 17.5857Z" clip-rule="evenodd" fill="#0E0825" fill-opacity="1.000000" fill-rule="evenodd"/>
	</g>
</svg>
