<svg width="12" height="12" viewBox="0 0 12 12" fill="none" xmlns="http://www.w3.org/2000/svg">
<g clip-path="url(#clip0_855_3496)">
<path d="M5.80194 8.73C5.81459 8.74253 5.8284 8.75383 5.84319 8.76375L5.86569 8.77594C5.88259 8.78678 5.90134 8.7944 5.921 8.79844L5.94444 8.805C5.98035 8.81207 6.01729 8.81207 6.05319 8.805L6.07757 8.7975L6.10569 8.78906C6.11534 8.7846 6.12473 8.77959 6.13382 8.77406L6.1535 8.76281C6.16903 8.7524 6.18347 8.74047 6.19663 8.72719L8.71944 6.20719C8.75091 6.1827 8.77681 6.1518 8.79543 6.11654C8.81405 6.08128 8.82495 6.04246 8.82743 6.00267C8.8299 5.96287 8.82388 5.923 8.80977 5.88571C8.79567 5.84841 8.77379 5.81454 8.74559 5.78635C8.7174 5.75815 8.68353 5.73628 8.64624 5.72217C8.60894 5.70806 8.56907 5.70204 8.52928 5.70451C8.48948 5.70699 8.45066 5.71789 8.4154 5.73651C8.38014 5.75513 8.34924 5.78103 8.32475 5.8125L6.28194 7.8525V0.28125C6.28194 0.206658 6.25231 0.135121 6.19957 0.0823762C6.14682 0.0296316 6.07528 0 6.00069 0C5.9261 0 5.85456 0.0296316 5.80182 0.0823762C5.74907 0.135121 5.71944 0.206658 5.71944 0.28125V7.8525L3.67663 5.8125C3.62252 5.77039 3.55489 5.7495 3.48646 5.75376C3.41803 5.75801 3.35351 5.78711 3.30503 5.83559C3.25655 5.88407 3.22745 5.94859 3.2232 6.01702C3.21895 6.08545 3.23984 6.15308 3.28194 6.20719L5.80194 8.73Z" fill="black"/>
<path d="M11.7188 8.25C11.6442 8.25 11.5726 8.27963 11.5199 8.33238C11.4671 8.38512 11.4375 8.45666 11.4375 8.53125V10.5938C11.4375 10.8175 11.3486 11.0321 11.1904 11.1904C11.0321 11.3486 10.8175 11.4375 10.5938 11.4375H1.40625C1.18247 11.4375 0.967862 11.3486 0.809629 11.1904C0.651395 11.0321 0.5625 10.8175 0.5625 10.5938V8.53125C0.5625 8.45666 0.532868 8.38512 0.480124 8.33238C0.427379 8.27963 0.355842 8.25 0.28125 8.25C0.206658 8.25 0.135121 8.27963 0.0823762 8.33238C0.0296316 8.38512 0 8.45666 0 8.53125L0 10.5938C0 10.9667 0.148158 11.3244 0.411881 11.5881C0.675604 11.8518 1.03329 12 1.40625 12H10.5938C10.9667 12 11.3244 11.8518 11.5881 11.5881C11.8518 11.3244 12 10.9667 12 10.5938V8.53125C12 8.45666 11.9704 8.38512 11.9176 8.33238C11.8649 8.27963 11.7933 8.25 11.7188 8.25Z" fill="black"/>
</g>
<defs>
<clipPath id="clip0_855_3496">
<rect width="12" height="12" fill="white"/>
</clipPath>
</defs>
</svg>
