<svg width="14" height="14" viewBox="0 0 14 14" fill="none" xmlns="http://www.w3.org/2000/svg">
<path d="M8.10979 13.6353H3.55745C2.30912 13.6353 2.24495 13.6161 2.21812 13.6073C2.13295 13.5817 2.04195 13.5111 1.98945 13.4586C1.92879 13.3973 1.83779 13.2503 1.82437 13.1483C1.81562 13.0858 1.81445 12.3339 1.81445 11.8912V4.30901C1.81445 3.06185 1.8337 2.99768 1.84187 2.97026C1.86695 2.88626 1.93637 2.79468 1.98887 2.7416C2.04954 2.68035 2.19829 2.5876 2.30212 2.57476C2.37445 2.56601 3.36087 2.56543 3.55745 2.56543H5.01054C6.2892 2.56543 6.3382 2.59518 6.39537 2.62901C6.41754 2.64243 6.4677 2.67335 7.31412 3.5186L8.9002 5.10468C9.74429 5.9476 9.7787 6.00476 9.78979 6.02343C9.80612 6.05026 9.82129 6.07535 9.83237 6.23168C9.84579 6.26143 9.85337 6.29351 9.85337 6.32793C9.85337 6.3536 9.84929 6.37868 9.8417 6.40143C9.84929 6.59976 9.85337 6.91068 9.85337 7.4071V11.8906C9.85337 13.1407 9.8347 13.2013 9.82595 13.2311C9.80029 13.3157 9.73029 13.4067 9.67779 13.4592C9.6177 13.5193 9.47129 13.6108 9.36862 13.6248C9.30154 13.6342 8.4662 13.6353 8.10979 13.6353ZM2.48645 13.164C2.66962 13.164 3.05579 13.1681 3.55745 13.1681H8.10979C8.72054 13.1681 9.24904 13.1658 9.3167 13.1611C9.31029 13.1658 9.33712 13.1378 9.35054 13.1261C9.36454 13.1121 9.38087 13.0882 9.38554 13.08C9.37912 13.0613 9.3867 12.5352 9.3867 11.8906V7.4071C9.3867 7.06351 9.3832 6.77301 9.37795 6.56185H7.25404C6.48229 6.56185 5.85404 5.9336 5.85404 5.16185V3.04143C5.64229 3.03618 5.35237 3.03268 5.00995 3.03268H3.55745C2.94437 3.03268 2.41412 3.0356 2.34879 3.0391C2.36045 3.03968 2.33012 3.06185 2.31729 3.07351C2.30387 3.08693 2.28695 3.11143 2.28287 3.1196C2.28987 3.13126 2.28112 3.6061 2.28112 4.30901V11.8912C2.28112 12.5013 2.28404 13.0298 2.28812 13.0975C2.28695 13.0771 2.31262 13.1197 2.3237 13.1331C2.33712 13.1459 2.36045 13.1628 2.36862 13.1669C2.37154 13.1646 2.41237 13.164 2.48645 13.164ZM6.32129 3.19426V5.16243C6.32129 5.67693 6.74012 6.09576 7.25462 6.09576H9.22337C9.07754 5.94585 8.85179 5.71718 8.57004 5.43601L6.98454 3.84993C6.70687 3.57226 6.47412 3.34243 6.32129 3.19426Z" fill="black"/>
<path d="M11.2227 11.4345H10.8383C10.7094 11.4345 10.6049 11.3295 10.6049 11.2012C10.6049 11.0728 10.7094 10.9678 10.8383 10.9678H11.2227C11.414 10.9678 11.596 10.9655 11.6404 10.9614C11.6439 10.9585 11.6678 10.9369 11.6806 10.9258C11.6946 10.9118 11.7115 10.8873 11.7156 10.8792C11.7092 10.8611 11.7168 10.3349 11.7168 9.69035V5.20685C11.7168 4.8551 11.715 4.56693 11.7127 4.3616H9.5847C8.81295 4.3616 8.1847 3.73335 8.1847 2.9616V0.840014C7.97295 0.834764 7.68303 0.831264 7.34061 0.831264H5.88753C5.27445 0.831264 4.7442 0.83418 4.67945 0.83768C4.68295 0.83943 4.66136 0.861014 4.64795 0.871514C4.63395 0.885514 4.61703 0.910014 4.61295 0.91818C4.61586 0.93743 4.6112 1.1451 4.6112 1.32535V1.70976C4.6112 1.83868 4.50678 1.9431 4.37786 1.9431C4.24895 1.9431 4.14453 1.8381 4.14453 1.70976V1.32535C4.14453 1.15151 4.14803 0.848764 4.17195 0.768847C4.19703 0.684264 4.26761 0.59268 4.31953 0.539597C4.37961 0.47893 4.52778 0.385597 4.63278 0.373347C4.70395 0.364597 5.69036 0.364014 5.88753 0.364014H7.34061C8.61928 0.364014 8.66828 0.393764 8.72545 0.427597C8.74703 0.44043 8.79778 0.471347 9.6442 1.31718L11.2303 2.90326C12.1344 3.80743 12.1484 3.86343 12.1636 3.92818C12.1659 3.9381 12.17 3.95443 12.1741 4.05885C12.1805 4.08043 12.184 4.10318 12.184 4.1271C12.184 4.14635 12.1817 4.16501 12.1776 4.1831C12.1811 4.3616 12.184 4.66901 12.184 5.20626V9.68976C12.184 10.9398 12.1654 11.0005 12.1566 11.0303C12.1309 11.1148 12.0604 11.2058 12.0084 11.2583C11.9484 11.3184 11.8019 11.41 11.6999 11.424C11.6637 11.4287 11.449 11.4345 11.2227 11.4345ZM8.65136 0.992847V2.96101C8.65136 3.47551 9.0702 3.89435 9.5847 3.89435H11.5453C11.3971 3.73801 11.1737 3.50818 10.9001 3.2346L9.31403 1.64851C9.03695 1.37143 8.8042 1.1416 8.65136 0.992847Z" fill="black"/>
</svg>
