<svg width="18" height="22" viewBox="0 0 18 22" fill="none" xmlns="http://www.w3.org/2000/svg">
<path fill-rule="evenodd" clip-rule="evenodd" d="M11.866 1.13448C11.6818 0.950685 11.463 0.805263 11.2222 0.706654L3.56445 0.560059C2.7688 0.560059 2.00574 0.876129 1.44313 1.43874C0.880524 2.00135 0.564453 2.76441 0.564453 3.56006V18.4401L0.564455 18.4415C0.566671 19.2361 0.883305 19.9975 1.44517 20.5593C2.00704 21.1212 2.76846 21.4378 3.56306 21.4401L3.56445 21.4401H14.4345L14.4358 21.4401C15.2304 21.4378 15.9919 21.1212 16.5537 20.5593C17.1156 19.9975 17.4322 19.2361 17.4345 18.4415L17.4345 18.4401L17.2788 6.6456C17.1756 6.40019 17.0241 6.17785 16.8334 5.992L11.866 1.13448ZM3.56445 2.56006C3.29924 2.56006 3.04488 2.66542 2.85735 2.85295C2.66981 3.04049 2.56445 3.29484 2.56445 3.56006V18.4401C2.56445 18.7053 2.66981 18.9596 2.85735 19.1472C3.04488 19.3347 3.29924 19.4401 3.56445 19.4401H14.4345C14.6997 19.4401 14.954 19.3347 15.1416 19.1472C15.3291 18.9596 15.4345 18.7053 15.4345 18.4401V8.00006H12.8745C12.0788 8.00006 11.3157 7.68399 10.7531 7.12138C10.1905 6.55877 9.87445 5.79571 9.87445 5.00006V2.56006H3.56445ZM11.8745 3.93721V5.00006C11.8745 5.26527 11.9798 5.51963 12.1673 5.70717C12.3549 5.8947 12.6092 6.00006 12.8745 6.00006H13.9868L11.8745 3.93721Z" fill="black"/>
</svg>
