<svg width="12" height="12" viewBox="0 0 12 12" fill="none" xmlns="http://www.w3.org/2000/svg">
<g clip-path="url(#clip0_855_3509)">
<path d="M11 6C10.7239 6 10.5 6.22388 10.5 6.5V10C10.5 10.2762 10.2762 10.5 10 10.5H2C1.72375 10.5 1.5 10.2762 1.5 10V2C1.5 1.72375 1.72375 1.5 2 1.5H5.5C5.77612 1.5 6 1.27613 6 1C6 0.723875 5.77612 0.5 5.5 0.5H2C1.17163 0.5 0.5 1.17163 0.5 2V10C0.5 10.8284 1.17163 11.5 2 11.5H10C10.8284 11.5 11.5 10.8284 11.5 10V6.5C11.5 6.22388 11.2761 6 11 6ZM11.5 1V4C11.5 4.27612 11.2761 4.5 11 4.5C10.7239 4.5 10.5 4.27612 10.5 4V2.207L6.40363 6.30325C6.2085 6.4985 5.89188 6.4985 5.69675 6.30325C5.5015 6.10812 5.5015 5.7915 5.69675 5.59625L9.79288 1.5H8C7.72388 1.5 7.5 1.27613 7.5 1C7.5 0.723875 7.72388 0.5 8 0.5H11C11.2761 0.5 11.5 0.723875 11.5 1Z" fill="black"/>
</g>
<defs>
<clipPath id="clip0_855_3509">
<rect width="12" height="12" fill="white"/>
</clipPath>
</defs>
</svg>
