<svg width="15" height="15" viewBox="0 0 15 15" fill="none" xmlns="http://www.w3.org/2000/svg">
<path d="M11.7188 9.60938C11.2827 9.60992 10.8575 9.74538 10.5015 9.99715C10.1455 10.2489 9.87613 10.6047 9.73033 11.0156H4.21875C3.78363 11.0156 3.36633 10.8428 3.05865 10.5351C2.75098 10.2274 2.57813 9.81012 2.57813 9.375C2.57813 8.93988 2.75098 8.52258 3.05865 8.2149C3.36633 7.90723 3.78363 7.73438 4.21875 7.73438H9.84375C10.5275 7.73438 11.1833 7.46275 11.6668 6.97926C12.1503 6.49577 12.4219 5.84001 12.4219 5.15625C12.4219 4.47249 12.1503 3.81673 11.6668 3.33324C11.1833 2.84975 10.5275 2.57813 9.84375 2.57812H4.21875C4.03227 2.57813 3.85343 2.6522 3.72157 2.78407C3.5897 2.91593 3.51563 3.09477 3.51563 3.28125C3.51563 3.46773 3.5897 3.64657 3.72157 3.77843C3.85343 3.9103 4.03227 3.98438 4.21875 3.98438H9.84375C10.1546 3.98438 10.4526 4.10784 10.6724 4.32761C10.8922 4.54738 11.0156 4.84545 11.0156 5.15625C11.0156 5.46705 10.8922 5.76512 10.6724 5.98489C10.4526 6.20466 10.1546 6.32812 9.84375 6.32812H4.21875C3.41067 6.32812 2.63568 6.64913 2.06428 7.22053C1.49288 7.79193 1.17188 8.56692 1.17188 9.375C1.17188 10.1831 1.49288 10.9581 2.06428 11.5295C2.63568 12.1009 3.41067 12.4219 4.21875 12.4219H9.73033C9.85925 12.7864 10.0859 13.1085 10.3855 13.353C10.6852 13.5974 11.0462 13.7548 11.4293 13.8079C11.8123 13.861 12.2025 13.8078 12.5574 13.654C12.9122 13.5003 13.2179 13.252 13.4412 12.9363C13.6644 12.6205 13.7965 12.2495 13.8231 11.8637C13.8497 11.4779 13.7698 11.0923 13.592 10.7489C13.4142 10.4055 13.1454 10.1176 12.8151 9.91659C12.4847 9.71563 12.1054 9.60935 11.7188 9.60938ZM11.7188 12.4219C11.5797 12.4219 11.4437 12.3806 11.3281 12.3034C11.2125 12.2261 11.1224 12.1163 11.0691 11.9878C11.0159 11.8593 11.002 11.718 11.0291 11.5816C11.0563 11.4452 11.1232 11.3199 11.2216 11.2216C11.3199 11.1232 11.4452 11.0563 11.5816 11.0291C11.718 11.002 11.8593 11.0159 11.9878 11.0691C12.1163 11.1224 12.2261 11.2125 12.3034 11.3281C12.3806 11.4437 12.4219 11.5797 12.4219 11.7188C12.4217 11.9052 12.3475 12.0839 12.2157 12.2157C12.0839 12.3475 11.9052 12.4217 11.7188 12.4219Z" fill="black"/>
</svg>
