<svg width="12.000000" height="11.000000" viewBox="0 0 12 11" fill="none" xmlns="http://www.w3.org/2000/svg" xmlns:xlink="http://www.w3.org/1999/xlink">
	<desc>
			Created with Pixso.
	</desc>
	<defs/>
	<path id="Vector" d="M10.4 4.21L6.16 4.21L6.16 0.11C6.16 -0.32 5.79 -0.67 5.35 -0.67C4.9 -0.67 4.54 -0.32 4.54 0.11L4.54 4.21L0.29 4.21C-0.15 4.21 -0.52 4.57 -0.52 5C-0.52 5.42 -0.15 5.78 0.29 5.78L4.54 5.78L4.54 9.88C4.54 10.31 4.9 10.66 5.35 10.66C5.79 10.66 6.16 10.31 6.16 9.88L6.16 5.78L10.4 5.78C10.85 5.78 11.21 5.42 11.21 5C11.21 4.57 10.85 4.21 10.4 4.21Z" fill="#231F20" fill-opacity="1.000000" fill-rule="nonzero"/>
</svg>
