<svg width="14" height="13" viewBox="0 0 14 13" fill="none" xmlns="http://www.w3.org/2000/svg">
<g clip-path="url(#clip0_855_3491)">
<path d="M11.92 1.72562L11.9519 1.748C12.3274 2.12998 12.5543 2.6222 12.559 3.12558C12.5909 3.62417 12.4007 4.13391 12.0235 4.53656L5.07261 11.9808L2.98553 12.3768C2.8497 12.4008 2.70907 12.3976 2.55886 12.34C2.41345 12.3096 2.29041 12.2473 2.18496 12.1258C2.08429 12.0315 1.97884 11.9101 1.92772 11.779C1.90377 11.6432 1.87982 11.5073 1.90541 11.3348L2.1534 9.24617L9.10425 1.80193C9.48144 1.39928 9.97845 1.1996 10.4818 1.19487C11.0076 1.15819 11.5173 1.34843 11.92 1.72562ZM9.43649 2.89183L10.9416 4.27913L11.3188 3.87648C11.5074 3.67515 11.6001 3.4067 11.5842 3.1574C11.5683 2.90811 11.466 2.64602 11.2647 2.45742L11.2327 2.43505C11.0314 2.24645 10.7901 2.14894 10.5137 2.16967C10.2596 2.15845 10.0294 2.28307 9.83605 2.45722L9.43649 2.89183ZM10.2816 4.98377L8.7764 3.59647L3.61721 9.12812L5.09519 10.5202L10.2816 4.98377ZM4.33444 11.1305L3.05778 9.92705L2.87221 11.4164L4.33444 11.1305Z" fill="black"/>
</g>
<defs>
<clipPath id="clip0_855_3491">
<rect width="12" height="9.77778" fill="white" transform="translate(0.367188 2.93018) rotate(-10)"/>
</clipPath>
</defs>
</svg>
