<svg width="15.000000" height="19.000000" viewBox="0 0 15 19" fill="none" xmlns="http://www.w3.org/2000/svg" xmlns:xlink="http://www.w3.org/1999/xlink">
	<desc>
			Created with Pixso.
	</desc>
	<defs/>
	<path id="Union" d="M7 -0.125C4.72266 -0.125 2.875 1.72192 2.875 4C2.875 6.27808 4.72266 8.125 7 8.125C9.27734 8.125 11.125 6.27808 11.125 4C11.125 1.72192 9.27734 -0.125 7 -0.125ZM4.125 4C4.125 2.41211 5.41211 1.125 7 1.125C8.58789 1.125 9.875 2.41211 9.875 4C9.875 5.58789 8.58789 6.875 7 6.875C5.41211 6.875 4.125 5.58789 4.125 4ZM7 9.875C3.25391 9.875 0.0996094 12.4106 -0.839844 15.8586C-1.04688 16.6189 -0.814453 17.3311 -0.351562 17.8345C0.103516 18.3286 0.779297 18.625 1.5 18.625L12.5 18.625C13.2207 18.625 13.8965 18.3286 14.3516 17.8345C14.8145 17.3311 15.0469 16.6189 14.8398 15.8586C13.9004 12.4106 10.7461 9.875 7 9.875ZM0.367188 16.1873C1.16211 13.2693 3.83203 11.125 7 11.125C10.168 11.125 12.8379 13.2693 13.6328 16.1873C13.7168 16.4927 13.6328 16.769 13.4316 16.9878C13.2227 17.2156 12.8848 17.375 12.5 17.375L1.5 17.375C1.11523 17.375 0.777344 17.2156 0.568359 16.9878C0.367188 16.769 0.283203 16.4927 0.367188 16.1873Z" clip-rule="evenodd" fill="#FFFFFF" fill-opacity="1.000000" fill-rule="evenodd"/>
</svg>
