<svg width="24.000000" height="24.000000" viewBox="0 0 24 24" fill="none" xmlns="http://www.w3.org/2000/svg" xmlns:xlink="http://www.w3.org/1999/xlink">
	<desc>
			Created with Pixso.
	</desc>
	<defs>
		<clipPath id="clip53_4761">
			<rect id="icn_m_down" width="24.000000" height="24.000000" transform="translate(24.000000 0.000000) rotate(90.000000)" fill="white" fill-opacity="0"/>
		</clipPath>
	</defs>
	<rect id="icn_m_down" width="24.000000" height="24.000000" fill="#FFFFFF" fill-opacity="0"/>
	<rect id="icn_m_down" width="24.000000" height="24.000000" transform="translate(24.000000 0.000000) rotate(90.000000)" fill="#FFFFFF" fill-opacity="0"/>
	<g clip-path="url(#clip53_4761)">
		<path id="Union" d="M12 15.6685C11.7363 15.6685 11.4805 15.5632 11.293 15.3757L5.63672 9.71875C5.45508 9.53003 5.35352 9.27734 5.35547 9.01538C5.35742 8.75317 5.46289 8.5022 5.64844 8.31689C5.83398 8.13135 6.08594 8.02637 6.34766 8.02393C6.60938 8.02173 6.86133 8.12256 7.05078 8.30469L12 13.2546L16.9512 8.30469C17.043 8.20923 17.1523 8.13306 17.2754 8.08057C17.3965 8.02808 17.5293 8.00049 17.6621 7.99951C17.7949 7.99829 17.9258 8.02368 18.0488 8.07373C18.1719 8.12402 18.2832 8.19849 18.377 8.29224C18.4707 8.38623 18.5449 8.4978 18.5957 8.62061C18.6465 8.74365 18.6719 8.87524 18.6699 9.00806C18.668 9.14087 18.6406 9.27197 18.5879 9.39404C18.5371 9.51611 18.4609 9.62646 18.3652 9.71875L12.707 15.3757C12.5195 15.5632 12.2656 15.6685 12 15.6685Z" clip-rule="evenodd" fill="#000000" fill-opacity="1.000000" fill-rule="evenodd"/>
	</g>
</svg>
