<svg width="22.000000" height="19.000000" viewBox="0 0 22 19" fill="none" xmlns="http://www.w3.org/2000/svg" xmlns:xlink="http://www.w3.org/1999/xlink">
	<desc>
			Created with Pixso.
	</desc>
	<defs/>
	<path id="Union" d="M2.5 -0.5C1.70508 -0.5 0.941406 -0.183838 0.378906 0.378662C-0.183594 0.941406 -0.5 1.70435 -0.5 2.5L-0.5 15.5C-0.5 16.2957 -0.183594 17.0586 0.378906 17.6213C0.941406 18.1838 1.70508 18.5 2.5 18.5L18.5 18.5C19.2949 18.5 20.0586 18.1838 20.6211 17.6213C21.1836 17.0586 21.5 16.2957 21.5 15.5L21.5 5.5C21.5 4.70435 21.1836 3.94141 20.6211 3.37866C20.0586 2.81616 19.2949 2.5 18.5 2.5L10.5996 2.5L10.5898 2.5C10.4238 2.50171 10.2578 2.46143 10.1094 2.38281C9.96289 2.3042 9.83789 2.1897 9.74609 2.05005L8.93164 0.844727C8.6582 0.432373 8.28906 0.09375 7.85352 -0.140869C7.41602 -0.376465 6.92578 -0.5 6.42969 -0.5L2.5 -0.5ZM1.79297 1.79297C1.98047 1.60547 2.23438 1.5 2.5 1.5L6.42969 1.5C6.5957 1.5 6.75781 1.54126 6.9043 1.61963C7.05078 1.69824 7.17383 1.81177 7.26562 1.94995L8.07812 3.15527C8.35352 3.57178 8.72852 3.91309 9.16992 4.14795C9.61133 4.38306 10.1055 4.50391 10.6035 4.5L18.5 4.5C18.7656 4.5 19.0195 4.60547 19.207 4.79297C19.3945 4.98047 19.5 5.23486 19.5 5.5L19.5 15.5C19.5 15.7651 19.3945 16.0195 19.207 16.207C19.0195 16.3945 18.7656 16.5 18.5 16.5L2.5 16.5C2.23438 16.5 1.98047 16.3945 1.79297 16.207C1.60547 16.0195 1.5 15.7651 1.5 15.5L1.5 2.5C1.5 2.23486 1.60547 1.98047 1.79297 1.79297Z" clip-rule="evenodd" fill="#000000" fill-opacity="1.000000" fill-rule="evenodd"/>
</svg>
