<svg width="52.000000" height="52.000000" viewBox="0 0 52 52" fill="none" xmlns="http://www.w3.org/2000/svg" xmlns:xlink="http://www.w3.org/1999/xlink">
	<desc>
			Created with Pixso.
	</desc>
	<defs>
		<clipPath id="clip2_2827">
			<rect id="icn_m_github" width="32.000000" height="32.000000" transform="translate(10.000000 10.000000)" fill="white" fill-opacity="0"/>
		</clipPath>
	</defs>
	<rect id="Sign up with Github" rx="26.000000" width="52.000000" height="52.000000" fill="#FFFFFF" fill-opacity="1.000000"/>
	<rect id="icn_m_github" width="32.000000" height="32.000000" transform="translate(10.000000 10.000000)" fill="#FFFFFF" fill-opacity="0"/>
	<g clip-path="url(#clip2_2827)">
		<path id="Union" d="M12.666 25.9996C12.666 18.4996 18.5 12.6663 26 12.6663C33.5 12.6663 39.332 18.4996 39.332 25.9996C39.332 34.7496 31.416 38.4996 30.166 38.4996C29.332 38.4996 29.332 38.0829 29.332 37.6663L29.332 34.3329C29.332 33.0829 28.916 32.2496 28.5 31.8329C31.416 31.4163 34.332 30.1663 34.332 25.5829Q34.332 23.0829 33.082 21.8329C33.082 21.8329 33.916 20.9996 33.082 18.0829C33.082 18.0829 31 18.0829 29.332 19.7496C28.082 18.9163 23.916 18.9163 22.666 19.7496C21 18.0829 18.916 18.0829 18.916 18.0829C18.082 20.1663 18.916 21.8329 18.916 21.8329Q17.666 23.0829 17.666 25.5829C17.666 30.1663 20.166 31.4163 23.5 31.8329C23.5 31.8329 22.666 32.6663 22.666 33.4996C21.832 33.9163 20.166 34.3329 18.916 32.6663C18.916 32.6663 18.082 30.9996 16.832 30.9996C15.5586 30.9996 16.2324 31.486 16.8047 31.9012C16.9824 32.0297 17.1504 32.1512 17.25 32.2496C18.082 33.0829 18.082 33.4996 18.082 33.4996C18.5 34.7496 19.75 36.4163 22.666 35.5829L22.666 37.6663C22.666 38.0829 22.666 38.4996 21.832 38.4996C20.582 38.4996 12.666 34.7496 12.666 25.9996Z" clip-rule="evenodd" fill="#000000" fill-opacity="1.000000" fill-rule="evenodd"/>
	</g>
</svg>
