<svg width="40.000000" height="40.000000" viewBox="0 0 40 40" fill="none" xmlns="http://www.w3.org/2000/svg" xmlns:xlink="http://www.w3.org/1999/xlink">
	<desc>
			Created with Pixso.
	</desc>
	<defs>
		<clipPath id="clip9_2206">
			<rect id="icn_l_best_practices" width="40.000000" height="40.000000" fill="white" fill-opacity="0"/>
		</clipPath>
	</defs>
	<rect id="icn_l_best_practices" width="40.000000" height="40.000000" fill="#FFFFFF" fill-opacity="0"/>
	<g clip-path="url(#clip9_2206)">
		<path id="Union" d="M21.9102 8.17419C20.6738 7.74146 19.3281 7.74146 18.0918 8.17419L7.57031 11.8563C5.38477 12.6213 5.38477 15.7123 7.57031 16.4773L10.8867 17.6378L10.8867 25.2533C10.8867 26.3123 11.3887 27.3087 12.2402 27.939C17.3457 31.7212 24.3242 31.7212 29.4297 27.939C30.2812 27.3087 30.7832 26.3124 30.7832 25.2533L30.7832 17.0543L31.834 16.7473C32.2051 16.8611 32.5527 17.2332 32.5527 17.6224L32.5527 26.4287C32.5527 26.8602 32.9023 27.21 33.334 27.21C33.7656 27.21 34.1152 26.8602 34.1152 26.4287L34.1152 17.6224C34.1152 16.9507 33.8418 16.3282 33.3867 15.8788C34.5488 14.6915 34.2305 12.486 32.4316 11.8563L21.9102 8.17419ZM8.08789 13.3311C7.29688 13.6078 7.29688 14.7258 8.08789 15.0024L18.6074 18.6847C19.5098 19.0004 20.4922 19.0004 21.3945 18.6847L29.2148 15.9474L23.1055 14.0806C22.6934 13.9545 22.4609 13.5178 22.5879 13.1051C22.7129 12.6925 23.1504 12.4602 23.5625 12.5863L31.8379 15.0786C32.6289 14.8019 32.7051 13.6078 31.916 13.3311L21.3945 9.64893C20.4922 9.33313 19.5098 9.33313 18.6074 9.64893L8.08789 13.3311ZM12.4492 25.2533L12.4492 18.1847L18.0918 20.1595C19.3281 20.5922 20.6738 20.592 21.9102 20.1594L29.2207 17.6013L29.2207 25.2533C29.2207 25.8171 28.9531 26.3478 28.5 26.6835C23.9453 30.0564 17.7227 30.0563 13.1699 26.6835C12.7168 26.3478 12.4492 25.8173 12.4492 25.2533ZM34.1152 29.4843C34.1152 29.0527 33.7656 28.703 33.334 28.703C32.9023 28.703 32.5527 29.0527 32.5527 29.4843L32.5527 31.6667C32.5527 32.0983 32.9023 32.448 33.334 32.448C33.7656 32.448 34.1152 32.0983 34.1152 31.6667L34.1152 29.4843Z" clip-rule="evenodd" fill="#0E0825" fill-opacity="1.000000" fill-rule="evenodd"/>
	</g>
</svg>
