<svg width="31.000000" height="27.000000" viewBox="0 0 31 27" fill="none" xmlns="http://www.w3.org/2000/svg" xmlns:xlink="http://www.w3.org/1999/xlink">
	<desc>
			Created with Pixso.
	</desc>
	<defs/>
	<path id="Union" d="M10.625 25.7083L19.375 25.7083L19.375 1.33325Q19.375 0.812256 19.1152 0.552002Q18.8535 0.291504 18.334 0.291504L11.666 0.291504Q11.1465 0.291504 10.8848 0.552002Q10.625 0.812256 10.625 1.33325L10.625 25.7083ZM20.625 25.7083L28.334 25.7083Q28.5488 25.7083 28.7324 25.6318Q28.918 25.5557 29.0703 25.4031Q29.2227 25.2505 29.2988 25.0664Q29.375 24.8823 29.375 24.6665L29.375 7.1665Q29.375 6.95068 29.2988 6.7666Q29.2227 6.58252 29.0703 6.42993Q28.918 6.27734 28.7324 6.20117Q28.5488 6.12476 28.334 6.12476L20.625 6.12476L20.625 25.7083ZM20.625 4.87476L28.334 4.87476Q28.8086 4.87476 29.2129 5.04272Q29.6191 5.21045 29.9531 5.54614Q30.2891 5.88159 30.457 6.28687Q30.625 6.69189 30.625 7.1665L30.625 24.6665Q30.625 25.1411 30.457 25.5464Q30.2891 25.9514 29.9531 26.2869Q29.6191 26.6226 29.2129 26.7903Q28.8086 26.9583 28.334 26.9583L1.66602 26.9583Q0.521484 26.9583 -0.0527344 26.3853Q-0.625 25.8123 -0.625 24.6665L-0.625 12.1665Q-0.625 11.6914 -0.457031 11.2859Q-0.289062 10.8813 0.0449219 10.5461Q0.380859 10.2107 0.785156 10.0427Q1.19141 9.87476 1.66602 9.87476L9.375 9.87476L9.375 1.33325Q9.375 0.187256 9.94727 -0.385498Q10.5215 -0.958496 11.666 -0.958496L18.334 -0.958496Q19.4785 -0.958496 20.0527 -0.385498Q20.625 0.187256 20.625 1.33325L20.625 4.87476ZM9.375 11.1248L1.66602 11.1248Q1.14648 11.1248 0.884766 11.385Q0.625 11.6455 0.625 12.1665L0.625 24.6665Q0.625 25.1873 0.884766 25.4478Q1.14648 25.7083 1.66602 25.7083L9.375 25.7083L9.375 11.1248Z" clip-rule="evenodd" fill="#0E0825" fill-opacity="1.000000" fill-rule="evenodd"/>
</svg>
