<svg width="24.000000" height="24.000000" viewBox="0 0 24 24" fill="none" xmlns="http://www.w3.org/2000/svg" xmlns:xlink="http://www.w3.org/1999/xlink">
	<desc>
			Created with Pixso.
	</desc>
	<defs>
		<clipPath id="clip2_2760">
			<rect id="icn_m_eye" width="24.000000" height="24.000000" fill="white" fill-opacity="0"/>
		</clipPath>
	</defs>
	<rect id="icn_m_eye" width="24.000000" height="24.000000" fill="#FFFFFF" fill-opacity="0"/>
	<g clip-path="url(#clip2_2760)">
		<path id="Union" d="M1 12C2.73047 7.60999 7 4.5 12 4.5C17 4.5 21.2695 7.60999 23 12C21.2695 16.39 17 19.5 12 19.5C7 19.5 2.73047 16.39 1 12ZM8.46484 15.5355C9.40234 16.4733 10.6738 17 12 17C13.3262 17 14.5977 16.4733 15.5352 15.5355C16.4727 14.5979 17 13.326 17 12C17 10.674 16.4727 9.4021 15.5352 8.46448C14.5977 7.52673 13.3262 7 12 7C10.6738 7 9.40234 7.52673 8.46484 8.46448C7.52734 9.4021 7 10.674 7 12C7 13.326 7.52734 14.5979 8.46484 15.5355ZM9.87891 9.87866C10.4414 9.31604 11.2051 9 12 9C12.7949 9 13.5586 9.31604 14.1211 9.87866C14.6836 10.4413 15 11.2043 15 12C15 12.7957 14.6836 13.5587 14.1211 14.1213C13.5586 14.684 12.7949 15 12 15C11.2051 15 10.4414 14.684 9.87891 14.1213C9.31641 13.5587 9 12.7957 9 12C9 11.2043 9.31641 10.4413 9.87891 9.87866Z" clip-rule="evenodd" fill="#878492" fill-opacity="1.000000" fill-rule="evenodd"/>
	</g>
</svg>
