<svg width="18.000000" height="18.000000" viewBox="0 0 18 18" fill="none" xmlns="http://www.w3.org/2000/svg" xmlns:xlink="http://www.w3.org/1999/xlink">
	<desc>
			Created with Pixso.
	</desc>
	<defs/>
	<path id="Union" d="M-0.625 8.37012C-0.625 3.4021 3.40234 -0.625 8.36914 -0.625C13.3379 -0.625 17.3652 3.4021 17.3652 8.37012C17.3652 13.3376 13.3379 17.365 8.36914 17.365C3.40234 17.365 -0.625 13.3376 -0.625 8.37012ZM8.36914 0.625C4.0918 0.625 0.625 4.09253 0.625 8.37012C0.625 12.6475 4.0918 16.115 8.36914 16.115C12.6465 16.115 16.1152 12.6475 16.1152 8.37012C16.1152 4.09253 12.6465 0.625 8.36914 0.625ZM6.48438 5.85889C6.48438 5.30664 6.69336 4.93286 6.98242 4.68774C7.61914 4.14722 8.70117 4.14722 9.33789 4.68774C9.62695 4.93286 9.83789 5.30664 9.83789 5.85889C9.83789 6.95898 8.64453 7.44946 8.15234 8.31714C7.89648 8.76978 7.74414 9.323 7.74414 10.0439C7.74414 10.3892 8.02539 10.6689 8.36914 10.6689C8.71484 10.6689 8.99414 10.3892 8.99414 10.0439C8.99414 9.50928 9.10547 9.17334 9.24023 8.93286C9.87109 7.8186 11.0879 7.35449 11.0879 5.85889C11.0879 4.94653 10.7227 4.22168 10.1484 3.73462C9.04883 2.80298 7.27148 2.80298 6.17383 3.73462C5.59961 4.22168 5.23438 4.94653 5.23438 5.85889C5.23438 6.2041 5.51367 6.48389 5.85938 6.48389C6.20508 6.48389 6.48438 6.2041 6.48438 5.85889ZM8.79688 12.9268C9.05273 13.1577 9.07422 13.553 8.8418 13.8093C8.61133 14.0659 8.21289 14.0994 7.95117 13.8647C7.69141 13.6301 7.68359 13.2292 7.91406 12.9727C8.14453 12.7163 8.54102 12.6956 8.79688 12.9268Z" clip-rule="evenodd" fill="#000000" fill-opacity="1.000000" fill-rule="evenodd"/>
</svg>
