<svg width="24.000000" height="24.000000" viewBox="0 0 24 24" fill="none" xmlns="http://www.w3.org/2000/svg" xmlns:xlink="http://www.w3.org/1999/xlink">
	<desc>
			Created with Pixso.
	</desc>
	<defs/>
	<path id="Union" d="M3.375 12.3701C3.375 7.4021 7.40234 3.375 12.3701 3.375C17.3379 3.375 21.3652 7.4021 21.3652 12.3701C21.3652 17.3376 17.3379 21.365 12.3701 21.365C7.40234 21.365 3.375 17.3376 3.375 12.3701ZM12.3701 4.625C8.09277 4.625 4.625 8.09253 4.625 12.3701C4.625 16.6475 8.09277 20.115 12.3701 20.115C16.6475 20.115 20.1152 16.6475 20.1152 12.3701C20.1152 8.09253 16.6475 4.625 12.3701 4.625ZM10.4844 9.85889C10.4844 9.30664 10.6934 8.93286 10.9824 8.68774C11.6201 8.14722 12.7021 8.14722 13.3389 8.68774C13.6279 8.93286 13.8379 9.30664 13.8379 9.85889C13.8379 10.959 12.6445 11.4495 12.1533 12.3171C11.8965 12.7698 11.7451 13.323 11.7451 14.0439C11.7451 14.3892 12.0244 14.6689 12.3701 14.6689C12.7148 14.6689 12.9951 14.3892 12.9951 14.0439C12.9951 13.5093 13.1045 13.1733 13.2412 12.9329C13.8721 11.8186 15.0879 11.3545 15.0879 9.85889C15.0879 8.94653 14.7217 8.22168 14.1475 7.73462C13.0498 6.80298 11.2715 6.80298 10.1738 7.73462C9.59961 8.22168 9.23438 8.94653 9.23438 9.85889C9.23438 10.2041 9.51367 10.4839 9.85938 10.4839C10.2041 10.4839 10.4844 10.2041 10.4844 9.85889ZM12.7969 16.9268C13.0527 17.1577 13.0742 17.553 12.8428 17.8093C12.6113 18.0659 12.2119 18.0994 11.9521 17.8647C11.6914 17.6301 11.6826 17.2292 11.9141 16.9727C12.1455 16.7163 12.54 16.6956 12.7969 16.9268Z" clip-rule="evenodd" fill="#000000" fill-opacity="1.000000" fill-rule="evenodd"/>
</svg>
