<svg width="28.000000" height="23.000000" viewBox="0 0 28 23" fill="none" xmlns="http://www.w3.org/2000/svg" xmlns:xlink="http://www.w3.org/1999/xlink">
	<desc>
			Created with Pixso.
	</desc>
	<defs/>
	<path d="M3.37305 5.35742C3.66406 3.32666 5.40234 1.81812 7.45508 1.81812C7.95703 1.81812 8.36328 1.41113 8.36328 0.90918C8.36328 0.406982 7.95703 0 7.45508 0C4.49805 0 1.99219 2.17383 1.57422 5.10034L0.222656 14.5549C0.078125 15.0723 0 15.6179 0 16.1819C0 19.4956 2.68555 22.1819 6 22.1819C9.31445 22.1819 12 19.4956 12 16.1819C12 15.6558 11.9316 15.1455 11.8047 14.6592C13.1875 13.9688 14.8125 13.9688 16.1953 14.6592C16.0684 15.1455 16 15.6558 16 16.1819C16 19.4956 18.6855 22.1819 22 22.1819C25.3145 22.1819 28 19.4956 28 16.1819C28 15.6179 27.9219 15.0723 27.7773 14.5549L26.4258 5.10034L26.4258 5.10034C26.0078 2.17383 23.502 0 20.5449 0C20.043 0 19.6367 0.406982 19.6367 0.90918C19.6367 1.41113 20.043 1.81812 20.5449 1.81812C22.5977 1.81812 24.3359 3.32666 24.627 5.35742L24.627 5.35742L25.4746 11.2891C24.4941 10.5918 23.2949 10.1819 22 10.1819C19.8594 10.1819 17.9805 11.3025 16.918 12.9893C15.0742 12.1011 12.9258 12.1011 11.082 12.9893C10.0195 11.3025 8.14062 10.1819 6 10.1819C4.70508 10.1819 3.50586 10.5918 2.52734 11.2891L3.37305 5.35742ZM6 20.3635C3.71094 20.3635 1.85156 18.5244 1.81836 16.2434L2.00391 14.9451C2.53125 13.2393 4.12109 12 6 12C8.30859 12 10.1816 13.8723 10.1816 16.1819C10.1816 18.4915 8.30859 20.3635 6 20.3635ZM26.1816 16.2434L25.9961 14.9451C25.4688 13.2393 23.8789 12 22 12C19.6914 12 17.8184 13.8723 17.8184 16.1819C17.8184 18.4915 19.6914 20.3635 22 20.3635C24.2891 20.3635 26.1484 18.5244 26.1816 16.2434Z" clip-rule="evenodd" fill="#0E0825" fill-opacity="1.000000" fill-rule="evenodd"/>
</svg>
