<svg width="24.000000" height="24.000000" viewBox="0 0 24 24" fill="none" xmlns="http://www.w3.org/2000/svg" xmlns:xlink="http://www.w3.org/1999/xlink">
	<desc>
			Created with Pixso.
	</desc>
	<defs>
		<clipPath id="clip37_4366">
			<rect id="icn_m_lock" width="24.000000" height="24.000000" fill="white" fill-opacity="0"/>
		</clipPath>
	</defs>
	<rect id="icn_m_lock" width="24.000000" height="24.000000" fill="#FFFFFF" fill-opacity="0"/>
	<g clip-path="url(#clip37_4366)">
		<path id="Union" d="M17.4375 9.25L18.125 9.25C19.6426 9.25 20.875 10.4834 20.875 12L20.875 20.25C20.875 21.7666 19.6426 23 18.125 23L5.75 23C4.23242 23 3 21.7666 3 20.25L3 12C3 10.4834 4.23242 9.25 5.75 9.25L6.4375 9.25L6.4375 6.62622C6.4375 3.52393 8.65625 1 11.9121 1C15.1543 1 17.4375 3.47119 17.4375 6.62622L17.4375 9.25ZM11.9121 2.375C9.41406 2.375 7.8125 4.28247 7.8125 6.62622L7.8125 9.25L16.0625 9.25L16.0625 6.62622C16.0625 4.24219 14.3848 2.375 11.9121 2.375ZM18.125 21.625C18.8828 21.625 19.5 21.0081 19.5 20.25L19.5 12C19.5 11.2419 18.8828 10.625 18.125 10.625L5.75 10.625C4.99219 10.625 4.375 11.2419 4.375 12L4.375 20.25C4.375 21.0081 4.99219 21.625 5.75 21.625L18.125 21.625ZM10.5625 14.75C10.5625 13.9907 11.1777 13.375 11.9375 13.375C12.6973 13.375 13.3125 13.9907 13.3125 14.75C13.3125 15.2573 13.0332 15.696 12.625 15.9343L12.625 18.1875C12.625 18.5669 12.3164 18.875 11.9375 18.875C11.5586 18.875 11.25 18.5669 11.25 18.1875L11.25 15.9343C10.8418 15.696 10.5625 15.2578 10.5625 14.75Z" clip-rule="evenodd" fill="#0E0825" fill-opacity="1.000000" fill-rule="evenodd"/>
	</g>
</svg>
