<svg width="40.000000" height="40.000000" viewBox="0 0 40 40" fill="none" xmlns="http://www.w3.org/2000/svg" xmlns:xlink="http://www.w3.org/1999/xlink">
	<desc>
			Created with Pixso.
	</desc>
	<defs/>
	<path id="Union" d="M26.1221 8C23.4805 8 21.3389 10.1414 21.3389 12.7827C21.3389 15.4243 23.4805 17.5657 26.1221 17.5657C28.7637 17.5657 30.9053 15.4243 30.9053 12.7827C30.9053 10.1414 28.7637 8 26.1221 8ZM23.252 12.7827C23.252 11.198 24.5371 9.91309 26.1221 9.91309C27.707 9.91309 28.9912 11.198 28.9912 12.7827C28.9912 14.3677 27.707 15.6526 26.1221 15.6526C24.5371 15.6526 23.252 14.3677 23.252 12.7827ZM13.8779 11.8262C11.2363 11.8262 9.09473 13.9675 9.09473 16.6091C9.09473 19.2505 11.2363 21.3918 13.8779 21.3918C16.5195 21.3918 18.6611 19.2505 18.6611 16.6091C18.6611 13.9675 16.5195 11.8262 13.8779 11.8262ZM11.0078 16.6091C11.0078 15.0242 12.293 13.7395 13.8779 13.7395C15.4629 13.7395 16.748 15.0242 16.748 16.6091C16.748 18.1941 15.4629 19.4788 13.8779 19.4788C12.293 19.4788 11.0078 18.1938 11.0078 16.6091ZM26.1221 20.2441C24.3164 20.2441 22.6104 20.6099 21.1572 21.3137C20.6816 21.5439 20.4824 22.116 20.7129 22.5916C20.9434 23.0669 21.5146 23.2659 21.9902 23.0356C23.1533 22.4724 24.5684 22.1572 26.1221 22.1572C29.3086 22.1572 31.875 23.5396 32.9736 25.5955C33.1631 25.9485 33.1055 26.2615 32.8564 26.5513C32.5771 26.8752 32.0654 27.1313 31.4785 27.1313L26.1221 27.1313C25.5938 27.1313 25.165 27.5596 25.165 28.0879C25.165 28.6162 25.5938 29.0444 26.1221 29.0444L31.4785 29.0444C32.583 29.0444 33.6387 28.5745 34.3057 27.7996C35.002 26.9905 35.2695 25.832 34.6611 24.6938L34.6611 24.6938C33.1396 21.8472 29.8008 20.2441 26.1221 20.2441ZM13.8779 24.0703C10.1992 24.0703 6.86035 25.6733 5.33887 28.52L5.33887 28.52C4.73047 29.6582 4.99805 30.8167 5.69434 31.6257C6.36133 32.4009 7.41699 32.8706 8.52148 32.8706L19.2344 32.8706C20.3389 32.8706 21.3945 32.4009 22.0615 31.6257C22.7588 30.8167 23.0254 29.6582 22.417 28.52L22.417 28.52C20.8955 25.6733 17.5566 24.0703 13.8779 24.0703ZM7.02637 29.4219C8.125 27.3657 10.6914 25.9834 13.8779 25.9834C17.0645 25.9834 19.6309 27.3657 20.7295 29.4219C20.9189 29.7747 20.8613 30.0879 20.6123 30.3777C20.333 30.7014 19.8213 30.9575 19.2344 30.9575L8.52148 30.9575C7.93457 30.9575 7.42285 30.7014 7.14355 30.3777C6.89453 30.0879 6.83691 29.7749 7.02637 29.4219Z" clip-rule="evenodd" fill="#0E0825" fill-opacity="1.000000" fill-rule="evenodd"/>
</svg>
