<svg width="40.000000" height="40.000000" viewBox="0 0 40 40" fill="none" xmlns="http://www.w3.org/2000/svg" xmlns:xlink="http://www.w3.org/1999/xlink">
	<desc>
			Created with Pixso.
	</desc>
	<defs/>
	<path id="Union" d="M12.1699 6C10.4189 6 9 7.41895 9 9.16943L9 31.5425C9 33.2927 10.4189 34.7119 12.1699 34.7119L27.8301 34.7119C29.5811 34.7119 31 33.2927 31 31.5425L31 9.16943C31 7.41895 29.5811 6 27.8301 6L12.1699 6ZM12.7285 17L12.7285 7.8645L12.1699 7.8645C11.4482 7.8645 10.8643 8.44873 10.8643 9.16943L10.8643 31.5425C10.8643 32.2632 11.4482 32.8474 12.1699 32.8474L27.8301 32.8474C28.5508 32.8474 29.1357 32.2632 29.1357 31.5425L29.1357 9.16943C29.1357 8.44873 28.5508 7.8645 27.8301 7.8645L21.3047 7.8645L21.3047 17C21.3047 18.2544 19.708 18.7861 18.9561 17.783L18.0605 16.5898C17.5391 15.8938 16.4951 15.8938 15.9727 16.5898L15.0781 17.783C14.3252 18.7864 12.7285 18.2542 12.7285 17ZM14.5928 7.8645L19.4404 7.8645L19.4404 15.3303C18.1787 13.8279 15.8545 13.8279 14.5928 15.3303L14.5928 7.8645ZM13.6611 24.644C13.1465 24.644 12.7285 25.0615 12.7285 25.5762C12.7285 26.0911 13.1465 26.5085 13.6611 26.5085L19.627 26.5085C20.1416 26.5085 20.5596 26.0911 20.5596 25.5762C20.5596 25.0615 20.1416 24.644 19.627 24.644L13.6611 24.644ZM13.6611 27.6272C13.1465 27.6272 12.7285 28.0444 12.7285 28.5593C12.7285 29.0742 13.1465 29.4915 13.6611 29.4915L24.1016 29.4915C24.6162 29.4915 25.0342 29.0742 25.0342 28.5593C25.0342 28.0444 24.6162 27.6272 24.1016 27.6272L13.6611 27.6272Z" clip-rule="evenodd" fill="#0E0825" fill-opacity="1.000000" fill-rule="evenodd"/>
</svg>
