<svg width="40.000000" height="40.000000" viewBox="0 0 40 40" fill="none" xmlns="http://www.w3.org/2000/svg" xmlns:xlink="http://www.w3.org/1999/xlink">
	<desc>
			Created with Pixso.
	</desc>
	<defs/>
	<path id="Union" d="M9.37402 14.3574C9.66406 12.3267 11.4033 10.8181 13.4541 10.8181C13.957 10.8181 14.3633 10.4111 14.3633 9.90918C14.3633 9.40698 13.957 9 13.4541 9C10.498 9 7.99219 11.1738 7.57422 14.1003L6.22363 23.5549C6.07812 24.0723 6 24.6179 6 25.1819C6 28.4956 8.68652 31.1819 12 31.1819C15.3135 31.1819 18 28.4956 18 25.1819C18 24.6558 17.9326 24.1455 17.8047 23.6592C19.1865 22.9688 20.8135 22.9688 22.1953 23.6592C22.0674 24.1455 22 24.6558 22 25.1819C22 28.4956 24.6865 31.1819 28 31.1819C31.3135 31.1819 34 28.4956 34 25.1819C34 24.6179 33.9219 24.0723 33.7764 23.5549L32.4258 14.1003L32.4258 14.1003C32.0078 11.1738 29.502 9 26.5459 9C26.043 9 25.6367 9.40698 25.6367 9.90918C25.6367 10.4111 26.043 10.8181 26.5459 10.8181C28.5967 10.8181 30.3359 12.3267 30.626 14.3574L30.626 14.3574L31.4736 20.2891C30.4932 19.5918 29.2949 19.1819 28 19.1819C25.8594 19.1819 23.9805 20.3025 22.9189 21.9893C21.0742 21.1011 18.9258 21.1011 17.0811 21.9893C16.0195 20.3025 14.1406 19.1819 12 19.1819C10.7051 19.1819 9.50684 19.5918 8.52637 20.2891L9.37402 14.3574ZM12 29.3635C9.71094 29.3635 7.85156 27.5244 7.81836 25.2434L8.00391 23.9451C8.53125 22.2393 10.1211 21 12 21C14.3096 21 16.1816 22.8723 16.1816 25.1819C16.1816 27.4915 14.3096 29.3635 12 29.3635ZM32.1816 25.2434L31.9961 23.9451C31.4688 22.2393 29.8789 21 28 21C25.6904 21 23.8184 22.8723 23.8184 25.1819C23.8184 27.4915 25.6904 29.3635 28 29.3635C30.2891 29.3635 32.1484 27.5244 32.1816 25.2434Z" clip-rule="evenodd" fill="#0E0825" fill-opacity="1.000000" fill-rule="evenodd"/>
</svg>
