<svg width="20.000000" height="20.000000" viewBox="0 0 20 20" fill="none" xmlns="http://www.w3.org/2000/svg" xmlns:xlink="http://www.w3.org/1999/xlink">
	<desc>
			Created with Pixso.
	</desc>
	<defs>
		<clipPath id="clip784_3282">
			<rect id="dots_three_icon_173182 4" width="20.000000" height="20.000000" transform="translate(0.000000 20.000000) rotate(-90.000000)" fill="white" fill-opacity="0"/>
		</clipPath>
	</defs>
	<rect id="dots_three_icon_173182 4" width="20.000000" height="20.000000" transform="translate(0.000000 20.000000) rotate(-90.000000)" fill="#FFFFFF" fill-opacity="0"/>
	<g clip-path="url(#clip784_3282)">
		<path id="Vector" d="M10 14.21C10.15 14.21 10.3 14.26 10.43 14.35C10.56 14.43 10.66 14.55 10.72 14.7C10.78 14.84 10.79 15 10.76 15.15C10.73 15.3 10.66 15.44 10.55 15.55C10.44 15.66 10.3 15.73 10.15 15.76C10 15.79 9.84 15.78 9.7 15.72C9.55 15.66 9.43 15.56 9.35 15.43C9.26 15.3 9.21 15.15 9.21 15C9.21 14.79 9.3 14.59 9.44 14.44C9.59 14.3 9.79 14.21 10 14.21ZM9.21 5C9.21 5.15 9.26 5.3 9.35 5.43C9.43 5.56 9.55 5.66 9.7 5.72C9.84 5.78 10 5.79 10.15 5.76C10.3 5.73 10.44 5.66 10.55 5.55C10.66 5.44 10.73 5.3 10.76 5.15C10.79 5 10.78 4.84 10.72 4.7C10.66 4.55 10.56 4.43 10.43 4.35C10.3 4.26 10.15 4.21 10 4.21C9.79 4.21 9.59 4.3 9.44 4.44C9.3 4.59 9.21 4.79 9.21 5ZM9.21 10C9.21 10.15 9.26 10.3 9.35 10.43C9.43 10.56 9.55 10.66 9.7 10.72C9.84 10.78 10 10.79 10.15 10.76C10.3 10.73 10.44 10.66 10.55 10.55C10.66 10.44 10.73 10.3 10.76 10.15C10.79 10 10.78 9.84 10.72 9.7C10.66 9.55 10.56 9.43 10.43 9.35C10.3 9.26 10.15 9.21 10 9.21C9.79 9.21 9.59 9.3 9.44 9.44C9.3 9.59 9.21 9.79 9.21 10Z" fill="#000000" fill-opacity="1.000000" fill-rule="nonzero"/>
	</g>
</svg>
