<svg width="9.000000" height="10.000000" viewBox="0 0 9 10" fill="none" xmlns="http://www.w3.org/2000/svg" xmlns:xlink="http://www.w3.org/1999/xlink">
	<desc>
			Created with Pixso.
	</desc>
	<defs/>
	<path id="Vector" d="M6.88 4.95C6.88 5.14 6.85 5.32 6.79 5.45C6.73 5.58 6.64 5.66 6.56 5.66L1.38 5.66C1.3 5.66 1.21 5.58 1.15 5.45C1.09 5.32 1.06 5.14 1.06 4.95C1.06 4.76 1.09 4.58 1.15 4.45C1.21 4.32 1.3 4.24 1.38 4.24L6.56 4.24C6.64 4.24 6.73 4.32 6.79 4.45C6.85 4.58 6.88 4.76 6.88 4.95ZM8.17 0L-0.24 0C-0.32 0 -0.4 0.07 -0.46 0.2C-0.53 0.34 -0.56 0.52 -0.56 0.7C-0.56 0.89 -0.53 1.07 -0.46 1.2C-0.4 1.34 -0.32 1.41 -0.24 1.41L8.17 1.41C8.26 1.41 8.34 1.34 8.4 1.2C8.46 1.07 8.5 0.89 8.5 0.7C8.5 0.52 8.46 0.34 8.4 0.2C8.34 0.07 8.26 0 8.17 0ZM4.94 8.49L3 8.49C2.91 8.49 2.83 8.57 2.77 8.7C2.71 8.83 2.68 9.01 2.68 9.2C2.68 9.39 2.71 9.57 2.77 9.7C2.83 9.83 2.91 9.91 3 9.91L4.94 9.91C5.03 9.91 5.11 9.83 5.17 9.7C5.23 9.57 5.26 9.39 5.26 9.2C5.26 9.01 5.23 8.83 5.17 8.7C5.11 8.57 5.03 8.49 4.94 8.49Z" fill="#000000" fill-opacity="1.000000" fill-rule="nonzero"/>
</svg>
