<svg width="24.000000" height="24.000000" viewBox="0 0 24 24" fill="none" xmlns="http://www.w3.org/2000/svg" xmlns:xlink="http://www.w3.org/1999/xlink">
	<desc>
			Created with Pixso.
	</desc>
	<defs>
		<clipPath id="clip37_2560">
			<rect id="icn_m_link" width="24.000000" height="24.000000" transform="translate(0.000000 -0.500000)" fill="white" fill-opacity="0"/>
		</clipPath>
	</defs>
	<rect id="icn_m_link" width="24.000000" height="24.000000" transform="translate(0.000000 -0.500000)" fill="#FFFFFF" fill-opacity="0"/>
	<g clip-path="url(#clip37_2560)">
		<path id="Union" d="M11.7578 6.15381L12.1953 5.64697C12.9434 4.91187 13.9492 4.49976 14.998 4.49976C16.0605 4.49976 17.0781 4.92139 17.8281 5.67163C18.5781 6.42188 19 7.43945 18.998 8.50024C18.998 9.55029 18.5859 10.5576 17.8496 11.3054L17.3438 11.7451C16.9277 12.1074 16.8828 12.739 17.2461 13.156C17.6074 13.5728 18.2383 13.6172 18.6562 13.2549L19.1895 12.791C19.207 12.7756 19.2246 12.7598 19.2402 12.7432C20.3672 11.6179 20.998 10.0918 20.998 8.50049C21 6.90918 20.3672 5.38281 19.2422 4.25757C18.1172 3.13208 16.5898 2.49976 15 2.49976C13.4082 2.49976 11.8809 3.13159 10.7559 4.25684C10.7383 4.27417 10.7227 4.29199 10.707 4.3103L10.2441 4.84644C9.88281 5.2644 9.92773 5.89575 10.3457 6.25684C10.7637 6.61792 11.3965 6.57178 11.7578 6.15381ZM15.707 9.20728C16.0977 8.81665 16.0977 8.18359 15.707 7.79297C15.3164 7.40234 14.6836 7.40234 14.293 7.79297L8.29297 13.793C7.90234 14.1836 7.90234 14.8167 8.29297 15.2073C8.68359 15.5977 9.31641 15.5977 9.70703 15.2073L15.707 9.20728ZM6.66211 11.2495C7.07617 10.8838 7.11523 10.2517 6.75 9.83789C6.38477 9.42407 5.75195 9.38501 5.33789 9.75073L4.81445 10.2136C4.80078 10.2261 4.78711 10.2388 4.77344 10.252C4.21094 10.8074 3.76562 11.4688 3.46094 12.1978C3.15625 12.9265 3 13.7087 3 14.4985C3 15.2886 3.15625 16.0706 3.46094 16.7996C3.76562 17.5283 4.21094 18.1897 4.77344 18.7451C5.9082 19.8684 7.44141 20.4985 9.03906 20.4985C10.6367 20.4985 12.1699 19.8684 13.3066 18.7451C13.3418 18.7095 13.375 18.6714 13.4062 18.6306L13.8027 18.0967C14.1328 17.6536 14.0391 17.0271 13.5977 16.6975C13.1543 16.3679 12.5273 16.4602 12.1973 16.9033L11.8477 17.373C11.0918 18.0947 10.0859 18.4985 9.03906 18.4985C7.96875 18.4985 6.94141 18.0759 6.17969 17.323C5.80469 16.9536 5.50977 16.5137 5.30664 16.0288C5.10352 15.5442 5 15.0239 5 14.4985C5 13.9731 5.10352 13.4531 5.30664 12.9683C5.50586 12.4915 5.79492 12.0583 6.16016 11.6929L6.66211 11.2495Z" clip-rule="evenodd" fill="#6F5F79" fill-opacity="1.000000" fill-rule="evenodd"/>
	</g>
</svg>
