<svg width="20.000000" height="20.000000" viewBox="0 0 20 20" fill="none" xmlns="http://www.w3.org/2000/svg" xmlns:xlink="http://www.w3.org/1999/xlink">
	<desc>
			Created with Pixso.
	</desc>
	<defs/>
	<path id="Union" d="M9.5 0C15.0234 0 19.5 4.47705 19.5 10C19.5 11.7268 19.0625 13.353 18.2891 14.772L19.0234 18.7095C19.0645 18.9355 18.9922 19.168 18.8301 19.3306C18.668 19.4932 18.4355 19.5652 18.209 19.5232L14.2715 18.79C12.8535 19.5618 11.2266 20 9.5 20C3.97656 20 -0.5 15.5227 -0.5 10C-0.5 4.47705 3.97656 0 9.5 0ZM18.1055 10C18.1055 5.2478 14.252 1.39526 9.5 1.39526C4.74805 1.39526 0.894531 5.2478 0.894531 10C0.894531 14.7522 4.74805 18.6047 9.5 18.6047C11.0684 18.6047 12.5371 18.1855 13.8027 17.4539C13.9453 17.3706 14.1152 17.3416 14.2793 17.3721L17.4648 17.9651L16.8711 14.7788C16.8418 14.6152 16.8711 14.446 16.9531 14.3018C17.6855 13.0369 18.1055 11.5684 18.1055 10ZM8.80273 6.27905C8.80273 5.8938 9.11523 5.5813 9.5 5.5813C9.88477 5.5813 10.1973 5.8938 10.1973 6.27905L10.1973 10C10.1973 10.3853 9.88477 10.6978 9.5 10.6978C9.11523 10.6978 8.80273 10.3853 8.80273 10L8.80273 6.27905ZM8.97266 14.187C8.71484 13.9006 8.73828 13.4595 9.02344 13.2017C9.31055 12.9436 9.75195 12.9668 10.0098 13.2529L10.0176 13.2632C10.2754 13.5496 10.2539 13.9907 9.9668 14.2485C9.67969 14.5066 9.24023 14.4834 8.98242 14.1973L8.97266 14.187Z" clip-rule="evenodd" fill="#CFAAE5" fill-opacity="1.000000" fill-rule="evenodd"/>
</svg>
