<svg width="20.000000" height="20.000000" viewBox="0 0 20 20" fill="none" xmlns="http://www.w3.org/2000/svg" xmlns:xlink="http://www.w3.org/1999/xlink">
	<desc>
			Created with Pixso.
	</desc>
	<defs/>
	<path id="Union" d="M10 0C4.47656 0 0 4.47705 0 10C0 11.7268 0.4375 13.353 1.21094 14.772L0.476562 18.7095C0.435547 18.9355 0.507812 19.168 0.669922 19.3306C0.832031 19.4932 1.06445 19.5652 1.29102 19.5232L5.22852 18.79C6.64648 19.5618 8.27344 20 10 20C15.5234 20 20 15.5227 20 10C20 4.47705 15.5234 0 10 0ZM1.39453 10C1.39453 5.2478 5.24805 1.39526 10 1.39526C14.752 1.39526 18.6055 5.2478 18.6055 10C18.6055 14.7522 14.752 18.6047 10 18.6047C8.43164 18.6047 6.96289 18.1855 5.69727 17.4539C5.55469 17.3706 5.38477 17.3416 5.2207 17.3721L2.03516 17.9651L2.62891 14.7788C2.6582 14.6152 2.62891 14.446 2.54688 14.3018C1.81445 13.0369 1.39453 11.5684 1.39453 10ZM5.34961 10.4651C5.60547 10.4651 5.81445 10.2568 5.81445 10C5.81445 9.74316 5.60547 9.53491 5.34961 9.53491C5.0918 9.53491 4.88477 9.74316 4.88477 10C4.88477 10.2568 5.0918 10.4651 5.34961 10.4651ZM10.4648 10C10.4648 10.2568 10.2559 10.4651 10 10.4651C9.74219 10.4651 9.53516 10.2568 9.53516 10C9.53516 9.74316 9.74219 9.53491 10 9.53491C10.2559 9.53491 10.4648 9.74316 10.4648 10ZM14.6504 10.4651C14.9082 10.4651 15.1172 10.2568 15.1172 10C15.1172 9.74316 14.9082 9.53491 14.6504 9.53491C14.3945 9.53491 14.1855 9.74316 14.1855 10C14.1855 10.2568 14.3945 10.4651 14.6504 10.4651Z" clip-rule="evenodd" fill="#0E0825" fill-opacity="1.000000" fill-rule="evenodd"/>
</svg>
