<svg width="24.000000" height="24.000000" viewBox="0 0 24 24" fill="none" xmlns="http://www.w3.org/2000/svg" xmlns:xlink="http://www.w3.org/1999/xlink">
	<desc>
			Created with Pixso.
	</desc>
	<defs>
		<clipPath id="clip16_2345">
			<rect id="icn_m_add_smth" width="24.000000" height="24.000000" fill="white" fill-opacity="0"/>
		</clipPath>
		<clipPath id="clip784_3088">
			<rect id="btn / icn" width="24.000000" height="24.000000" fill="white" fill-opacity="0"/>
		</clipPath>
	</defs>
	<g clip-path="url(#clip784_3088)">
		<rect id="icn_m_add_smth" width="24.000000" height="24.000000" fill="#FFFFFF" fill-opacity="0"/>
		<g clip-path="url(#clip16_2345)">
			<path id="Union" d="M18.75 3.74854C17.0195 2.01855 14.2129 2.0188 12.4824 3.74927L5.11719 11.1157C2.69531 13.5371 2.69531 17.4626 5.11719 19.884C7.53906 22.3054 11.4648 22.3054 13.8848 19.884L19.3281 14.4419C19.5723 14.1978 19.5723 13.802 19.3281 13.5579C19.084 13.314 18.6875 13.314 18.4434 13.5579L13.002 19.0002C11.0684 20.9333 7.93359 20.9333 6 19.0002C4.06836 17.0669 4.06836 13.9326 6 11.9995L13.3672 4.63306C14.6094 3.39062 16.623 3.39062 17.8672 4.63257C19.1094 5.87524 19.1094 7.89014 17.8672 9.13281L10.5 16.4993C9.94922 17.0513 9.05273 17.0513 8.50195 16.4993C7.94922 15.9473 7.94922 15.0525 8.50195 14.5005L14.4434 8.55957C14.6875 8.31543 14.6875 7.91968 14.4434 7.67554C14.1992 7.4314 13.8027 7.4314 13.5586 7.67554L7.61719 13.6167C6.57812 14.6567 6.57812 16.343 7.61719 17.3831C8.6582 18.4231 10.3438 18.4231 11.3848 17.3831L18.75 10.0166C20.4824 8.28564 20.4824 5.47925 18.75 3.74854Z" clip-rule="evenodd" fill="#0E0825" fill-opacity="1.000000" fill-rule="evenodd"/>
		</g>
	</g>
</svg>
