<svg width="24.000000" height="24.000000" viewBox="0 0 24 24" fill="none" xmlns="http://www.w3.org/2000/svg" xmlns:xlink="http://www.w3.org/1999/xlink">
	<desc>
			Created with Pixso.
	</desc>
	<defs/>
	<path id="Union" d="M10.0156 5.24609C10.3535 5.10303 10.3828 4.33887 10.4609 4.03638C10.8242 2.6543 13.1055 2.65454 13.4688 4.03711C13.5469 4.33423 13.5723 5.07812 13.9082 5.21606L15.3301 5.80103C15.5684 5.89868 15.8145 5.65356 16.0039 5.46509C16.0527 5.41699 16.0977 5.37256 16.1367 5.33838C16.6836 4.87231 17.4941 4.90405 18.002 5.41138L18.5918 6C19.0957 6.50537 19.1309 7.31372 18.668 7.85938C18.6348 7.89966 18.5898 7.94507 18.541 7.99438C18.3516 8.18604 18.1055 8.43555 18.2051 8.67383L18.7734 10.0479C18.9121 10.3831 19.6543 10.4033 19.9512 10.4788C21.3457 10.8333 21.3496 13.1399 19.959 13.502C19.6602 13.5798 18.9082 13.6047 18.7676 13.9421L18.1973 15.3188C18.0996 15.5581 18.3477 15.8098 18.5371 16.0024C18.5879 16.052 18.6328 16.0977 18.666 16.1382C19.1289 16.6838 19.0957 17.4932 18.5898 17.999L18.0156 18.5735C17.498 19.0908 16.6719 19.1091 16.127 18.6348C16.0918 18.6028 16.0488 18.5598 16.002 18.5125C15.8242 18.3311 15.5859 18.0879 15.3691 18.1785L13.9512 18.7649C13.6152 18.9043 13.5957 19.6516 13.5195 19.9495C13.166 21.3506 10.834 21.3501 10.4805 19.9485C10.4062 19.6509 10.3867 18.9036 10.0488 18.7649L8.70508 18.2119C8.46484 18.1128 8.19922 18.3672 7.99609 18.5603C7.94336 18.6116 7.89453 18.6584 7.85156 18.6931C7.30469 19.1387 6.50977 19.0984 6.01172 18.5996L5.42578 18.0129C4.91016 17.4978 4.88672 16.6702 5.37109 16.1262C5.4043 16.0886 5.44727 16.0471 5.49414 16.0022C5.67969 15.8208 5.92188 15.5864 5.82031 15.3489L5.24609 13.9839C5.10156 13.6433 4.33008 13.6082 4.02539 13.5251C2.63477 13.1453 2.66602 10.8152 4.07617 10.4858C4.36719 10.4177 5.08984 10.4126 5.22461 10.0801L5.78516 8.70142C5.88281 8.46143 5.62891 8.19629 5.4375 7.99463C5.38672 7.94116 5.33984 7.89233 5.30469 7.84937C4.86133 7.30273 4.90234 6.50879 5.40039 6.01074L5.98828 5.42261C6.50195 4.90771 7.32812 4.88354 7.87305 5.36743C7.91016 5.40112 7.95312 5.44409 7.99805 5.49048C8.17969 5.67798 8.41602 5.92017 8.6543 5.82007L10.0156 5.24609ZM12.4453 4.30566C12.3555 3.95801 11.5762 3.95801 11.4844 4.30566C11.2949 5.02637 11.2031 5.89258 10.4258 6.22021L9.06445 6.79419C8.28516 7.12256 7.71289 6.64087 7.16992 6.15747C6.77148 5.80298 5.84375 6.83691 6.125 7.18262C6.14062 7.20068 6.1543 7.21851 6.16992 7.23657C6.61523 7.78345 7.07227 8.34473 6.76367 9.09985L6.20312 10.4785C5.88281 11.2666 5.04102 11.3462 4.31641 11.5156C3.95898 11.5991 3.95312 12.4094 4.30469 12.5051C5.02344 12.7012 5.89258 12.7976 6.2207 13.5732L6.79492 14.9382C7.12305 15.7161 6.64258 16.2874 6.16016 16.8298C5.80469 17.228 6.83789 18.1553 7.18359 17.8735C7.20117 17.8594 7.21875 17.8452 7.23633 17.8311C7.78516 17.3828 8.34961 16.9221 9.10742 17.2341L10.4512 17.7871C11.2363 18.1099 11.3242 18.9663 11.5059 19.6897C11.5957 20.0439 12.4062 20.0442 12.4961 19.6897C12.6777 18.9675 12.7656 18.1118 13.5469 17.7881L14.9629 17.2014C15.7285 16.885 16.2852 17.3691 16.8223 17.8372C17.2285 18.1917 18.1543 17.1689 17.8594 16.822L17.8496 16.8101C17.3828 16.2585 16.9004 15.6895 17.2207 14.9143L17.791 13.5376C18.1133 12.7571 18.9727 12.6663 19.6934 12.4788C20.043 12.3875 20.043 11.593 19.6914 11.5034C18.9707 11.3203 18.1191 11.2322 17.7969 10.4524L17.2285 9.07837C16.9082 8.30444 17.3887 7.7356 17.8555 7.18384L17.8613 7.17676C18.2012 6.77368 17.166 5.84961 16.8242 6.14233C16.2734 6.61279 15.7051 7.09839 14.9277 6.77881L13.5059 6.19409C12.7285 5.87402 12.6348 5.02319 12.4453 4.30566ZM8.93359 11.999C8.93359 10.3057 10.3066 8.93286 12 8.93286C13.6934 8.93286 15.0664 10.3057 15.0664 11.999C15.0664 13.6926 13.6934 15.0654 12 15.0654C10.3066 15.0654 8.93359 13.6926 8.93359 11.999ZM12 9.99023C10.8906 9.99023 9.99219 10.8896 9.99219 11.999C9.99219 13.1086 10.8906 14.0081 12 14.0081C13.1094 14.0081 14.0098 13.1086 14.0098 11.999C14.0098 10.8896 13.1094 9.99023 12 9.99023Z" clip-rule="evenodd" fill="#000000" fill-opacity="1.000000" fill-rule="evenodd"/>
</svg>
